<svg xmlns="http://www.w3.org/2000/svg" version="1.1" xmlns:xlink="http://www.w3.org/1999/xlink" xmlns:svgjs="http://svgjs.com/svgjs" width="1440" height="560" preserveAspectRatio="none" viewBox="0 0 1440 560"><g mask="url(&quot;#SvgjsMask1053&quot;)" fill="none"><rect width="1440" height="560" x="0" y="0" fill="url(#SvgjsLinearGradient1054)"></rect><path d="M660.6998127602477 342.41719300900206L519.9324331420917 224.0705428778376 489.25746542692843 381.8795712266399z" fill="rgba(28, 83, 142, 0.4)" class="triangle-float1"></path><path d="M817.292,208.191C836.413,207.585,854.847,200.107,865.016,183.903C875.86,166.623,877.935,144.883,868.31,126.895C858.143,107.893,838.84,95.093,817.292,94.708C795.086,94.311,774.106,105.77,763.013,125.011C751.932,144.232,751.901,168.523,764.026,187.103C775.211,204.243,796.835,208.839,817.292,208.191" fill="rgba(28, 83, 142, 0.4)" class="triangle-float1"></path><path d="M311.45861357824185 523.0047351570142L345.501838509389 404.28190081720675 192.73577923843436 488.9615102258671z" fill="rgba(28, 83, 142, 0.4)" class="triangle-float2"></path><path d="M864.286,356.498C882.291,357.466,899.448,346.842,907.743,330.832C915.489,315.882,910.067,298.751,901.807,284.08C893.339,269.04,881.515,254.675,864.286,253.648C845.488,252.527,826.472,262.211,818.125,279.091C810.439,294.633,819.35,311.667,828.231,326.559C836.807,340.939,847.567,355.599,864.286,356.498" fill="rgba(28, 83, 142, 0.4)" class="triangle-float2"></path><path d="M691.8722196856219 120.48877380282404L543.6224035121963 86.26260690816807 509.39623661754035 234.51242308159362 657.6460527909659 268.7385899762496z" fill="rgba(28, 83, 142, 0.4)" class="triangle-float2"></path><path d="M473.13,89.523C491.967,90.044,511.157,81.924,519.967,65.266C528.352,49.413,522.231,30.533,512.189,15.674C503.437,2.723,488.759,-3.761,473.13,-4.039C456.918,-4.328,440.295,0.562,431.586,14.24C422.268,28.875,422.195,47.602,430.578,62.793C439.252,78.511,455.184,89.026,473.13,89.523" fill="rgba(28, 83, 142, 0.4)" class="triangle-float2"></path><path d="M414.49411948009595 349.00314172142953L349.5322691863866 265.8557650262168 266.38489249117384 330.8176153199261 331.3467427848832 413.9649920151389z" fill="rgba(28, 83, 142, 0.4)" class="triangle-float2"></path><path d="M599.1381051453101 579.4451835251872L637.358022152425 446.15649291217403 504.0693315394118 407.9365759050592 465.8494145322969 541.2252665180723z" fill="rgba(28, 83, 142, 0.4)" class="triangle-float3"></path><path d="M243.73404397124432 173.54959991372598L309.20293491887475 95.52681392372885 231.1801489288776 30.05792297609841 165.71125798124717 108.08070896609556z" fill="rgba(28, 83, 142, 0.4)" class="triangle-float1"></path><path d="M57.69001692484572 440.03733904380323L-17.890573290670233 352.9242816207302-52.37199868284665 447.6612192763441z" fill="rgba(28, 83, 142, 0.4)" class="triangle-float1"></path><path d="M1091.440550865986 346.316660527964L1042.0310111598496 194.2497335949809 889.9640842268666 243.65927330111737 939.373623933003 395.7262002341005z" fill="rgba(28, 83, 142, 0.4)" class="triangle-float1"></path><path d="M1199.7762831425391 457.9285230175501L1093.663190426923 494.46619097110323 1130.200858380476 600.5792836867195 1236.3139510960923 564.0416157331664z" fill="rgba(28, 83, 142, 0.4)" class="triangle-float2"></path><path d="M1459.742,704.22C1503.197,706.033,1548.026,686.814,1567.746,648.049C1586.199,611.775,1566.218,571.201,1545.11,536.405C1525.07,503.369,1498.381,469.996,1459.742,470.002C1421.11,470.008,1393.063,502.596,1374.423,536.434C1356.577,568.832,1349.53,606.675,1366.295,639.645C1384.689,675.818,1419.196,702.529,1459.742,704.22" fill="rgba(28, 83, 142, 0.4)" class="triangle-float3"></path><path d="M1058.0797913909232 297.45338442524735L1033.2028320613542 390.29546058102324 1126.0449082171301 415.17241991059217 1150.921867546699 322.3303437548163z" fill="rgba(28, 83, 142, 0.4)" class="triangle-float1"></path><path d="M37.4726557170501 51.168602451600734L105.72435301450228 126.96979162848493 181.52554219138648 58.718094331032745 113.2738448939343-17.08309484585145z" fill="rgba(28, 83, 142, 0.4)" class="triangle-float3"></path></g><defs><mask id="SvgjsMask1053"><rect width="1440" height="560" fill="#ffffff"></rect></mask><linearGradient x1="15.28%" y1="-39.29%" x2="84.72%" y2="139.29%" gradientUnits="userSpaceOnUse" id="SvgjsLinearGradient1054"><stop stop-color="#0e2a47" offset="0"></stop><stop stop-color="rgba(0, 6, 126, 1)" offset="1"></stop></linearGradient><style>
            @keyframes float1 {
                0%{transform: translate(0, 0)}
                50%{transform: translate(-10px, 0)}
                100%{transform: translate(0, 0)}
            }

            .triangle-float1 {
                animation: float1 5s infinite;
            }

            @keyframes float2 {
                0%{transform: translate(0, 0)}
                50%{transform: translate(-5px, -5px)}
                100%{transform: translate(0, 0)}
            }

            .triangle-float2 {
                animation: float2 4s infinite;
            }

            @keyframes float3 {
                0%{transform: translate(0, 0)}
                50%{transform: translate(0, -10px)}
                100%{transform: translate(0, 0)}
            }

            .triangle-float3 {
                animation: float3 6s infinite;
            }
        </style></defs></svg>