<svg xmlns="http://www.w3.org/2000/svg" version="1.1" xmlns:xlink="http://www.w3.org/1999/xlink" xmlns:svgjs="http://svgjs.com/svgjs" width="1200" height="700" preserveAspectRatio="none" viewBox="0 0 1200 700"><g mask="url(&quot;#SvgjsMask1110&quot;)" fill="none"><rect width="1200" height="700" x="0" y="0" fill="url(#SvgjsLinearGradient1111)"></rect><path d="M120.705,187.857C139.653,187.711,159.085,181.753,168.793,165.48C178.706,148.862,176.871,127.602,166.329,111.376C156.64,96.462,138.471,92.283,120.705,91.461C100.818,90.541,78.103,90.174,67.131,106.786C55.397,124.551,59.583,148.467,71.321,166.229C81.94,182.298,101.445,188.005,120.705,187.857" fill="rgba(28, 83, 142, 0.4)" class="triangle-float2"></path><path d="M847.5859423099897 603.9512110452895L1021.3006661051231 600.9190092624581 844.5537405271583 430.2364872501561z" fill="rgba(28, 83, 142, 0.4)" class="triangle-float2"></path><path d="M-13.024833915843498 580.8978885321504L138.46943039079054 738.0742835680086 194.26231816537523 555.5839704977163z" fill="rgba(28, 83, 142, 0.4)" class="triangle-float3"></path><path d="M756.451,471.585C809.703,474.956,865.712,458.265,893.787,412.889C923.119,365.482,919.991,303.434,889.273,256.913C861.192,214.386,807.395,203.54,756.451,204.9C708.379,206.183,659.273,221.964,635.365,263.689C611.569,305.219,622.164,355.861,646.254,397.221C670.158,438.262,709.051,468.585,756.451,471.585" fill="rgba(28, 83, 142, 0.4)" class="triangle-float2"></path><path d="M473.8105350601703 489.03984804784795L552.6753141734541 593.6969447783688 657.332410903975 514.8321656650849 578.4676317906911 410.1750689345641z" fill="rgba(28, 83, 142, 0.4)" class="triangle-float2"></path><path d="M534.9547715979971 144.08762175398903L692.3406791974463 242.43325183531806 790.6863092787753 85.04734423586889 633.3004016793261-13.298285845460128z" fill="rgba(28, 83, 142, 0.4)" class="triangle-float2"></path><path d="M715.0286799874397 174.5853239244488L732.3682003953826 372.776949092034 930.5598255629677 355.43742868409106 913.2203051550248 157.24580351650587z" fill="rgba(28, 83, 142, 0.4)" class="triangle-float2"></path><path d="M289.8623467086726 698.3395595115082L421.19801056203636 693.7532170680391 285.27600426520354 567.0038956581445z" fill="rgba(28, 83, 142, 0.4)" class="triangle-float2"></path><path d="M1102.593,853.611C1160.47,853.516,1201.558,803.7,1229.634,753.089C1256.668,704.357,1271.997,646.283,1244.494,597.815C1216.703,548.839,1158.901,529.757,1102.593,529.204C1045.121,528.639,984.227,545.038,955.78,594.979C927.546,644.546,946.664,703.9,974.824,753.509C1003.451,803.939,1044.604,853.707,1102.593,853.611" fill="rgba(28, 83, 142, 0.4)" class="triangle-float3"></path><path d="M852.7343492696316 406.7663631464999L650.0791140274225 336.77046558830386 682.6245657603049 521.344894312245z" fill="rgba(28, 83, 142, 0.4)" class="triangle-float2"></path><path d="M321.1481723168798 356.573967465279L183.55958659307848 420.7325786630031 247.71819779080255 558.3211643868044 385.3067835146039 494.1625531890803z" fill="rgba(28, 83, 142, 0.4)" class="triangle-float1"></path><path d="M336.45035088919724 422.7719318564559L462.15930211903736 420.57767395068095 334.25609298342226 297.0629806266158z" fill="rgba(28, 83, 142, 0.4)" class="triangle-float1"></path><path d="M791.931478948824 790.4242872176517L956.0223298543156 683.8624426653848 849.4604853020487 519.7715917598932 685.3696343965571 626.3334363121601z" fill="rgba(28, 83, 142, 0.4)" class="triangle-float2"></path><path d="M165.284,400.768C230.792,402.255,295.834,376.217,330.142,320.392C366.009,262.029,368.556,186.915,332.509,128.663C298.079,73.023,230.659,51.276,165.284,53.979C104.853,56.478,51.06,89.426,20.408,141.567C-10.695,194.475,-17.041,259.615,12.902,313.188C43.538,367.999,102.508,399.343,165.284,400.768" fill="rgba(28, 83, 142, 0.4)" class="triangle-float1"></path><path d="M1258.178,379.749C1321.305,375.676,1370.421,333.209,1404.343,279.815C1441.712,220.995,1474.699,150.772,1443.116,88.653C1409.353,22.246,1332.667,-8.731,1258.178,-7.67C1185.595,-6.636,1119.148,31.344,1082.142,93.793C1044.372,157.529,1036.394,237.959,1075.233,301.05C1112.533,361.64,1187.175,384.33,1258.178,379.749" fill="rgba(28, 83, 142, 0.4)" class="triangle-float1"></path><path d="M1012.882559343971 226.6484957296389L1042.2820747022663 377.895890533738 1193.5294695063653 348.49637517544267 1164.12995414807 197.2489803713436z" fill="rgba(28, 83, 142, 0.4)" class="triangle-float2"></path><path d="M161.8881140064075-64.45863904642536L105.96402616520655 25.03860973097332 251.3853627838062-8.534551205224396z" fill="rgba(28, 83, 142, 0.4)" class="triangle-float3"></path><path d="M202.5324521555553 559.0022045763047L81.24243428451896 414.1743072908529 22.063105266358946 568.3417301719782z" fill="rgba(28, 83, 142, 0.4)" class="triangle-float2"></path><path d="M500.52191746170473 131.99492373768732L373.2230671757387-64.43770401449535 277.16085410915076 116.22904241957505z" fill="rgba(28, 83, 142, 0.4)" class="triangle-float3"></path><path d="M362.8500146335833 651.5200720336588L534.9195776953918 595.6112818726871 479.01078753442005 423.5417188108786 306.94122447261157 479.45050897185035z" fill="rgba(28, 83, 142, 0.4)" class="triangle-float3"></path></g><defs><mask id="SvgjsMask1110"><rect width="1200" height="700" fill="#ffffff"></rect></mask><linearGradient x1="10.42%" y1="-17.86%" x2="89.58%" y2="117.86%" gradientUnits="userSpaceOnUse" id="SvgjsLinearGradient1111"><stop stop-color="#0e2a47" offset="0"></stop><stop stop-color="rgba(28, 0, 111, 1)" offset="1"></stop></linearGradient><style>
            @keyframes float1 {
                0%{transform: translate(0, 0)}
                50%{transform: translate(-10px, 0)}
                100%{transform: translate(0, 0)}
            }

            .triangle-float1 {
                animation: float1 5s infinite;
            }

            @keyframes float2 {
                0%{transform: translate(0, 0)}
                50%{transform: translate(-5px, -5px)}
                100%{transform: translate(0, 0)}
            }

            .triangle-float2 {
                animation: float2 4s infinite;
            }

            @keyframes float3 {
                0%{transform: translate(0, 0)}
                50%{transform: translate(0, -10px)}
                100%{transform: translate(0, 0)}
            }

            .triangle-float3 {
                animation: float3 6s infinite;
            }
        </style></defs></svg>