<svg xmlns="http://www.w3.org/2000/svg" version="1.1" xmlns:xlink="http://www.w3.org/1999/xlink" xmlns:svgjs="http://svgjs.com/svgjs" width="1440" height="560" preserveAspectRatio="none" viewBox="0 0 1440 560"><g mask="url(&quot;#SvgjsMask2311&quot;)" fill="none"><rect width="1440" height="560" x="0" y="0" fill="#0e2a47"></rect><path d="M66.41 -77.05L141.76 -33.55L141.76 53.45L66.41 96.95L-8.94 53.45L-8.94 -33.55zM66.41 183.95L141.76 227.45L141.76 314.45L66.41 357.95L-8.94 314.45L-8.94 227.45zM66.41 444.95L141.76 488.45L141.76 575.45L66.41 618.95L-8.94 575.45L-8.94 488.45zM292.45 53.45L367.8 96.95L367.8 183.95L292.45 227.45L217.1 183.95L217.1 96.95zM292.45 314.45L367.8 357.95L367.8 444.95L292.45 488.45L217.1 444.95L217.1 357.95zM367.8 183.95L443.14 227.45L443.14 314.45L367.8 357.95L292.45 314.45L292.45 227.45zM593.83 314.45L669.18 357.95L669.18 444.95L593.83 488.45L518.49 444.95L518.49 357.95zM518.49 444.95L593.83 488.45L593.83 575.45L518.49 618.95L443.14 575.45L443.14 488.45zM669.18 -77.05L744.53 -33.55L744.53 53.45L669.18 96.95L593.83 53.45L593.83 -33.55zM970.57 183.95L1045.91 227.45L1045.91 314.45L970.57 357.95L895.22 314.45L895.22 227.45zM970.57 444.95L1045.91 488.45L1045.91 575.45L970.57 618.95L895.22 575.45L895.22 488.45zM1121.26 444.95L1196.61 488.45L1196.61 575.45L1121.26 618.95L1045.91 575.45L1045.91 488.45zM1347.3 53.45L1422.64 96.95L1422.64 183.95L1347.3 227.45L1271.95 183.95L1271.95 96.95zM1497.99 53.45L1573.34 96.95L1573.34 183.95L1497.99 227.45L1422.64 183.95L1422.64 96.95z" stroke="url(#SvgjsLinearGradient2312)" stroke-width="2"></path><path d="M57.71 -77.05 a8.7 8.7 0 1 0 17.4 0 a8.7 8.7 0 1 0 -17.4 0zM133.06 -33.55 a8.7 8.7 0 1 0 17.4 0 a8.7 8.7 0 1 0 -17.4 0zM133.06 53.45 a8.7 8.7 0 1 0 17.4 0 a8.7 8.7 0 1 0 -17.4 0zM57.71 96.95 a8.7 8.7 0 1 0 17.4 0 a8.7 8.7 0 1 0 -17.4 0zM-17.64 53.45 a8.7 8.7 0 1 0 17.4 0 a8.7 8.7 0 1 0 -17.4 0zM-17.64 -33.55 a8.7 8.7 0 1 0 17.4 0 a8.7 8.7 0 1 0 -17.4 0zM57.71 183.95 a8.7 8.7 0 1 0 17.4 0 a8.7 8.7 0 1 0 -17.4 0zM133.06 227.45 a8.7 8.7 0 1 0 17.4 0 a8.7 8.7 0 1 0 -17.4 0zM133.06 314.45 a8.7 8.7 0 1 0 17.4 0 a8.7 8.7 0 1 0 -17.4 0zM57.71 357.95 a8.7 8.7 0 1 0 17.4 0 a8.7 8.7 0 1 0 -17.4 0zM-17.64 314.45 a8.7 8.7 0 1 0 17.4 0 a8.7 8.7 0 1 0 -17.4 0zM-17.64 227.45 a8.7 8.7 0 1 0 17.4 0 a8.7 8.7 0 1 0 -17.4 0zM57.71 444.95 a8.7 8.7 0 1 0 17.4 0 a8.7 8.7 0 1 0 -17.4 0zM133.06 488.45 a8.7 8.7 0 1 0 17.4 0 a8.7 8.7 0 1 0 -17.4 0zM133.06 575.45 a8.7 8.7 0 1 0 17.4 0 a8.7 8.7 0 1 0 -17.4 0zM57.71 618.95 a8.7 8.7 0 1 0 17.4 0 a8.7 8.7 0 1 0 -17.4 0zM-17.64 575.45 a8.7 8.7 0 1 0 17.4 0 a8.7 8.7 0 1 0 -17.4 0zM-17.64 488.45 a8.7 8.7 0 1 0 17.4 0 a8.7 8.7 0 1 0 -17.4 0zM283.75 53.45 a8.7 8.7 0 1 0 17.4 0 a8.7 8.7 0 1 0 -17.4 0zM359.1 96.95 a8.7 8.7 0 1 0 17.4 0 a8.7 8.7 0 1 0 -17.4 0zM359.1 183.95 a8.7 8.7 0 1 0 17.4 0 a8.7 8.7 0 1 0 -17.4 0zM283.75 227.45 a8.7 8.7 0 1 0 17.4 0 a8.7 8.7 0 1 0 -17.4 0zM208.4 183.95 a8.7 8.7 0 1 0 17.4 0 a8.7 8.7 0 1 0 -17.4 0zM208.4 96.95 a8.7 8.7 0 1 0 17.4 0 a8.7 8.7 0 1 0 -17.4 0zM283.75 314.45 a8.7 8.7 0 1 0 17.4 0 a8.7 8.7 0 1 0 -17.4 0zM359.1 357.95 a8.7 8.7 0 1 0 17.4 0 a8.7 8.7 0 1 0 -17.4 0zM359.1 444.95 a8.7 8.7 0 1 0 17.4 0 a8.7 8.7 0 1 0 -17.4 0zM283.75 488.45 a8.7 8.7 0 1 0 17.4 0 a8.7 8.7 0 1 0 -17.4 0zM208.4 444.95 a8.7 8.7 0 1 0 17.4 0 a8.7 8.7 0 1 0 -17.4 0zM208.4 357.95 a8.7 8.7 0 1 0 17.4 0 a8.7 8.7 0 1 0 -17.4 0zM434.44 227.45 a8.7 8.7 0 1 0 17.4 0 a8.7 8.7 0 1 0 -17.4 0zM434.44 314.45 a8.7 8.7 0 1 0 17.4 0 a8.7 8.7 0 1 0 -17.4 0zM585.13 314.45 a8.7 8.7 0 1 0 17.4 0 a8.7 8.7 0 1 0 -17.4 0zM660.48 357.95 a8.7 8.7 0 1 0 17.4 0 a8.7 8.7 0 1 0 -17.4 0zM660.48 444.95 a8.7 8.7 0 1 0 17.4 0 a8.7 8.7 0 1 0 -17.4 0zM585.13 488.45 a8.7 8.7 0 1 0 17.4 0 a8.7 8.7 0 1 0 -17.4 0zM509.79 444.95 a8.7 8.7 0 1 0 17.4 0 a8.7 8.7 0 1 0 -17.4 0zM509.79 357.95 a8.7 8.7 0 1 0 17.4 0 a8.7 8.7 0 1 0 -17.4 0zM585.13 575.45 a8.7 8.7 0 1 0 17.4 0 a8.7 8.7 0 1 0 -17.4 0zM509.79 618.95 a8.7 8.7 0 1 0 17.4 0 a8.7 8.7 0 1 0 -17.4 0zM434.44 575.45 a8.7 8.7 0 1 0 17.4 0 a8.7 8.7 0 1 0 -17.4 0zM434.44 488.45 a8.7 8.7 0 1 0 17.4 0 a8.7 8.7 0 1 0 -17.4 0zM660.48 -77.05 a8.7 8.7 0 1 0 17.4 0 a8.7 8.7 0 1 0 -17.4 0zM735.83 -33.55 a8.7 8.7 0 1 0 17.4 0 a8.7 8.7 0 1 0 -17.4 0zM735.83 53.45 a8.7 8.7 0 1 0 17.4 0 a8.7 8.7 0 1 0 -17.4 0zM660.48 96.95 a8.7 8.7 0 1 0 17.4 0 a8.7 8.7 0 1 0 -17.4 0zM585.13 53.45 a8.7 8.7 0 1 0 17.4 0 a8.7 8.7 0 1 0 -17.4 0zM585.13 -33.55 a8.7 8.7 0 1 0 17.4 0 a8.7 8.7 0 1 0 -17.4 0zM961.87 183.95 a8.7 8.7 0 1 0 17.4 0 a8.7 8.7 0 1 0 -17.4 0zM1037.21 227.45 a8.7 8.7 0 1 0 17.4 0 a8.7 8.7 0 1 0 -17.4 0zM1037.21 314.45 a8.7 8.7 0 1 0 17.4 0 a8.7 8.7 0 1 0 -17.4 0zM961.87 357.95 a8.7 8.7 0 1 0 17.4 0 a8.7 8.7 0 1 0 -17.4 0zM886.52 314.45 a8.7 8.7 0 1 0 17.4 0 a8.7 8.7 0 1 0 -17.4 0zM886.52 227.45 a8.7 8.7 0 1 0 17.4 0 a8.7 8.7 0 1 0 -17.4 0zM961.87 444.95 a8.7 8.7 0 1 0 17.4 0 a8.7 8.7 0 1 0 -17.4 0zM1037.21 488.45 a8.7 8.7 0 1 0 17.4 0 a8.7 8.7 0 1 0 -17.4 0zM1037.21 575.45 a8.7 8.7 0 1 0 17.4 0 a8.7 8.7 0 1 0 -17.4 0zM961.87 618.95 a8.7 8.7 0 1 0 17.4 0 a8.7 8.7 0 1 0 -17.4 0zM886.52 575.45 a8.7 8.7 0 1 0 17.4 0 a8.7 8.7 0 1 0 -17.4 0zM886.52 488.45 a8.7 8.7 0 1 0 17.4 0 a8.7 8.7 0 1 0 -17.4 0zM1112.56 444.95 a8.7 8.7 0 1 0 17.4 0 a8.7 8.7 0 1 0 -17.4 0zM1187.91 488.45 a8.7 8.7 0 1 0 17.4 0 a8.7 8.7 0 1 0 -17.4 0zM1187.91 575.45 a8.7 8.7 0 1 0 17.4 0 a8.7 8.7 0 1 0 -17.4 0zM1112.56 618.95 a8.7 8.7 0 1 0 17.4 0 a8.7 8.7 0 1 0 -17.4 0zM1338.6 53.45 a8.7 8.7 0 1 0 17.4 0 a8.7 8.7 0 1 0 -17.4 0zM1413.94 96.95 a8.7 8.7 0 1 0 17.4 0 a8.7 8.7 0 1 0 -17.4 0zM1413.94 183.95 a8.7 8.7 0 1 0 17.4 0 a8.7 8.7 0 1 0 -17.4 0zM1338.6 227.45 a8.7 8.7 0 1 0 17.4 0 a8.7 8.7 0 1 0 -17.4 0zM1263.25 183.95 a8.7 8.7 0 1 0 17.4 0 a8.7 8.7 0 1 0 -17.4 0zM1263.25 96.95 a8.7 8.7 0 1 0 17.4 0 a8.7 8.7 0 1 0 -17.4 0zM1489.29 53.45 a8.7 8.7 0 1 0 17.4 0 a8.7 8.7 0 1 0 -17.4 0zM1564.64 96.95 a8.7 8.7 0 1 0 17.4 0 a8.7 8.7 0 1 0 -17.4 0zM1564.64 183.95 a8.7 8.7 0 1 0 17.4 0 a8.7 8.7 0 1 0 -17.4 0zM1489.29 227.45 a8.7 8.7 0 1 0 17.4 0 a8.7 8.7 0 1 0 -17.4 0z" fill="url(#SvgjsLinearGradient2312)"></path><path d="M77.63 220.87L120.94 245.87L120.94 295.87L77.63 320.87L34.33 295.87L34.33 245.87zM34.33 445.87L77.63 470.87L77.63 520.87L34.33 545.87L-8.97 520.87L-8.97 470.87zM77.63 520.87L120.94 545.87L120.94 595.87L77.63 620.87L34.33 595.87L34.33 545.87zM120.94 -4.13L164.24 20.87L164.24 70.87L120.94 95.87L77.63 70.87L77.63 20.87zM120.94 145.87L164.24 170.87L164.24 220.87L120.94 245.87L77.63 220.87L77.63 170.87zM120.94 295.87L164.24 320.87L164.24 370.87L120.94 395.87L77.63 370.87L77.63 320.87zM207.54 145.87L250.84 170.87L250.84 220.87L207.54 245.87L164.24 220.87L164.24 170.87zM250.84 220.87L294.14 245.87L294.14 295.87L250.84 320.87L207.54 295.87L207.54 245.87zM207.54 295.87L250.84 320.87L250.84 370.87L207.54 395.87L164.24 370.87L164.24 320.87zM250.84 370.87L294.14 395.87L294.14 445.87L250.84 470.87L207.54 445.87L207.54 395.87zM294.14 -4.13L337.45 20.87L337.45 70.87L294.14 95.87L250.84 70.87L250.84 20.87zM294.14 145.87L337.45 170.87L337.45 220.87L294.14 245.87L250.84 220.87L250.84 170.87zM294.14 295.87L337.45 320.87L337.45 370.87L294.14 395.87L250.84 370.87L250.84 320.87zM337.45 370.87L380.75 395.87L380.75 445.87L337.45 470.87L294.14 445.87L294.14 395.87zM294.14 445.87L337.45 470.87L337.45 520.87L294.14 545.87L250.84 520.87L250.84 470.87zM380.75 -4.13L424.05 20.87L424.05 70.87L380.75 95.87L337.45 70.87L337.45 20.87zM424.05 70.87L467.36 95.87L467.36 145.87L424.05 170.87L380.75 145.87L380.75 95.87zM380.75 145.87L424.05 170.87L424.05 220.87L380.75 245.87L337.45 220.87L337.45 170.87zM424.05 220.87L467.36 245.87L467.36 295.87L424.05 320.87L380.75 295.87L380.75 245.87zM380.75 295.87L424.05 320.87L424.05 370.87L380.75 395.87L337.45 370.87L337.45 320.87zM380.75 445.87L424.05 470.87L424.05 520.87L380.75 545.87L337.45 520.87L337.45 470.87zM510.66 70.87L553.96 95.87L553.96 145.87L510.66 170.87L467.36 145.87L467.36 95.87zM467.36 145.87L510.66 170.87L510.66 220.87L467.36 245.87L424.05 220.87L424.05 170.87zM510.66 220.87L553.96 245.87L553.96 295.87L510.66 320.87L467.36 295.87L467.36 245.87zM510.66 370.87L553.96 395.87L553.96 445.87L510.66 470.87L467.36 445.87L467.36 395.87zM510.66 520.87L553.96 545.87L553.96 595.87L510.66 620.87L467.36 595.87L467.36 545.87zM553.96 -4.13L597.26 20.87L597.26 70.87L553.96 95.87L510.66 70.87L510.66 20.87zM553.96 145.87L597.26 170.87L597.26 220.87L553.96 245.87L510.66 220.87L510.66 170.87zM597.26 220.87L640.57 245.87L640.57 295.87L597.26 320.87L553.96 295.87L553.96 245.87zM683.87 70.87L727.17 95.87L727.17 145.87L683.87 170.87L640.57 145.87L640.57 95.87zM683.87 220.87L727.17 245.87L727.17 295.87L683.87 320.87L640.57 295.87L640.57 245.87zM640.57 445.87L683.87 470.87L683.87 520.87L640.57 545.87L597.26 520.87L597.26 470.87zM770.47 70.87L813.78 95.87L813.78 145.87L770.47 170.87L727.17 145.87L727.17 95.87zM727.17 145.87L770.47 170.87L770.47 220.87L727.17 245.87L683.87 220.87L683.87 170.87zM770.47 520.87L813.78 545.87L813.78 595.87L770.47 620.87L727.17 595.87L727.17 545.87zM813.78 145.87L857.08 170.87L857.08 220.87L813.78 245.87L770.47 220.87L770.47 170.87zM857.08 220.87L900.38 245.87L900.38 295.87L857.08 320.87L813.78 295.87L813.78 245.87zM900.38 -4.13L943.68 20.87L943.68 70.87L900.38 95.87L857.08 70.87L857.08 20.87zM900.38 145.87L943.68 170.87L943.68 220.87L900.38 245.87L857.08 220.87L857.08 170.87zM943.68 220.87L986.99 245.87L986.99 295.87L943.68 320.87L900.38 295.87L900.38 245.87zM900.38 295.87L943.68 320.87L943.68 370.87L900.38 395.87L857.08 370.87L857.08 320.87zM1030.29 70.87L1073.59 95.87L1073.59 145.87L1030.29 170.87L986.99 145.87L986.99 95.87zM986.99 145.87L1030.29 170.87L1030.29 220.87L986.99 245.87L943.68 220.87L943.68 170.87zM1030.29 220.87L1073.59 245.87L1073.59 295.87L1030.29 320.87L986.99 295.87L986.99 245.87zM986.99 295.87L1030.29 320.87L1030.29 370.87L986.99 395.87L943.68 370.87L943.68 320.87zM1073.59 145.87L1116.89 170.87L1116.89 220.87L1073.59 245.87L1030.29 220.87L1030.29 170.87zM1116.89 220.87L1160.19 245.87L1160.19 295.87L1116.89 320.87L1073.59 295.87L1073.59 245.87zM1073.59 295.87L1116.89 320.87L1116.89 370.87L1073.59 395.87L1030.29 370.87L1030.29 320.87zM1116.89 370.87L1160.19 395.87L1160.19 445.87L1116.89 470.87L1073.59 445.87L1073.59 395.87zM1203.5 70.87L1246.8 95.87L1246.8 145.87L1203.5 170.87L1160.19 145.87L1160.19 95.87zM1160.19 145.87L1203.5 170.87L1203.5 220.87L1160.19 245.87L1116.89 220.87L1116.89 170.87zM1160.19 295.87L1203.5 320.87L1203.5 370.87L1160.19 395.87L1116.89 370.87L1116.89 320.87zM1160.19 445.87L1203.5 470.87L1203.5 520.87L1160.19 545.87L1116.89 520.87L1116.89 470.87zM1203.5 520.87L1246.8 545.87L1246.8 595.87L1203.5 620.87L1160.19 595.87L1160.19 545.87zM1290.1 70.87L1333.4 95.87L1333.4 145.87L1290.1 170.87L1246.8 145.87L1246.8 95.87zM1290.1 520.87L1333.4 545.87L1333.4 595.87L1290.1 620.87L1246.8 595.87L1246.8 545.87zM1333.4 145.87L1376.71 170.87L1376.71 220.87L1333.4 245.87L1290.1 220.87L1290.1 170.87zM1333.4 295.87L1376.71 320.87L1376.71 370.87L1333.4 395.87L1290.1 370.87L1290.1 320.87zM1333.4 445.87L1376.71 470.87L1376.71 520.87L1333.4 545.87L1290.1 520.87L1290.1 470.87zM1376.71 520.87L1420.01 545.87L1420.01 595.87L1376.71 620.87L1333.4 595.87L1333.4 545.87zM1463.31 70.87L1506.62 95.87L1506.62 145.87L1463.31 170.87L1420.01 145.87L1420.01 95.87zM1463.31 220.87L1506.62 245.87L1506.62 295.87L1463.31 320.87L1420.01 295.87L1420.01 245.87zM1463.31 370.87L1506.62 395.87L1506.62 445.87L1463.31 470.87L1420.01 445.87L1420.01 395.87zM1420.01 445.87L1463.31 470.87L1463.31 520.87L1420.01 545.87L1376.71 520.87L1376.71 470.87zM1463.31 520.87L1506.62 545.87L1506.62 595.87L1463.31 620.87L1420.01 595.87L1420.01 545.87z" stroke="url(#SvgjsLinearGradient2313)" stroke-width="2"></path></g><defs><mask id="SvgjsMask2311"><rect width="1440" height="560" fill="#ffffff"></rect></mask><linearGradient x1="220.03199999999998" y1="-220.02399999999997" x2="1219.9679999999998" y2="780.024" gradientUnits="userSpaceOnUse" id="SvgjsLinearGradient2312"><stop stop-color="rgba(104, 0, 85, 1)" offset="0"></stop><stop stop-color="rgba(0, 57, 114, 1)" offset="1"></stop></linearGradient><linearGradient x1="220.03199999999998" y1="-220.02399999999997" x2="1219.9679999999998" y2="780.024" gradientUnits="userSpaceOnUse" id="SvgjsLinearGradient2313"><stop stop-color="#0e2a47" offset="0"></stop><stop stop-color="rgba(0, 73, 167, 1)" offset="1"></stop></linearGradient></defs></svg>