<svg xmlns="http://www.w3.org/2000/svg" version="1.1" xmlns:xlink="http://www.w3.org/1999/xlink" xmlns:svgjs="http://svgjs.com/svgjs" width="1440" height="1500" preserveAspectRatio="none" viewBox="0 0 1440 1500"><g mask="url(&quot;#SvgjsMask1075&quot;)" fill="none"><rect width="1440" height="1500" x="0" y="0" fill="url(#SvgjsLinearGradient1076)"></rect><path d="M22.031,886.27C76.853,884.626,104.138,826.152,131.455,778.592C158.608,731.318,192.897,679.577,168.851,630.65C142.892,577.83,80.747,551.923,22.031,555.944C-30.803,559.562,-68.893,601.812,-93.652,648.626C-116.537,691.896,-120.808,741.504,-99.384,785.515C-74.712,836.197,-34.312,887.96,22.031,886.27" fill="rgba(28, 83, 142, 0.4)" class="triangle-float1"></path><path d="M979.9767479592098 897.819715960175L1204.3261668634473 1007.2422387855855 1256.2852416494443 616.006849016524z" fill="rgba(28, 83, 142, 0.4)" class="triangle-float2"></path><path d="M778.5720891520849 192.18648515293225L834.7866252760789-205.05342549700433 507.3707112362242-79.37023159885689z" fill="rgba(28, 83, 142, 0.4)" class="triangle-float3"></path><path d="M894.1402963431424 1112.8174177798087L1341.700747625635 1200.2570895161382 1218.5157768985646 821.1327330820181z" fill="rgba(28, 83, 142, 0.4)" class="triangle-float2"></path><path d="M753.9838617364906 1385.8265342657642L792.0897748959876 1169.7171617443773 448.87275953415883 1220.6129782658252z" fill="rgba(28, 83, 142, 0.4)" class="triangle-float2"></path><path d="M1109.682,1962.444C1224.216,1963.125,1337.088,1909.792,1391.03,1808.753C1442.447,1712.443,1405.742,1601.408,1353.653,1505.46C1298.228,1403.368,1225.716,1296.059,1109.682,1290.509C986.64,1284.624,879.766,1371.408,821.636,1480.013C766.731,1582.593,774.421,1705.545,834.067,1805.443C892.162,1902.742,996.361,1961.77,1109.682,1962.444" fill="rgba(28, 83, 142, 0.4)" class="triangle-float3"></path><path d="M999.763,573.262C1046.814,572.852,1091.06,547.369,1112.768,505.623C1133.055,466.609,1122.164,420.436,1098.505,383.37C1076.799,349.363,1040.092,329.683,999.763,328.58C957.207,327.416,914.411,342.013,891.197,377.699C865.839,416.68,860.723,466.964,883.294,507.622C906.477,549.383,952.001,573.678,999.763,573.262" fill="rgba(28, 83, 142, 0.4)" class="triangle-float3"></path><path d="M705.9435869051595 321.30786941471104L812.7271628706216 631.4298922907277 1016.0656097811761 214.52429344924894z" fill="rgba(28, 83, 142, 0.4)" class="triangle-float1"></path><path d="M513.8300619898156 1100.8736093574887L256.58170678654693 1301.858051720297 714.8145043526239 1358.1219645607573z" fill="rgba(28, 83, 142, 0.4)" class="triangle-float1"></path></g><defs><mask id="SvgjsMask1075"><rect width="1440" height="1500" fill="#ffffff"></rect></mask><linearGradient x1="-1.04%" y1="1%" x2="101.04%" y2="99%" gradientUnits="userSpaceOnUse" id="SvgjsLinearGradient1076"><stop stop-color="#0e2a47" offset="0"></stop><stop stop-color="rgba(0, 6, 126, 1)" offset="1"></stop></linearGradient><style>
            @keyframes float1 {
                0%{transform: translate(0, 0)}
                50%{transform: translate(-10px, 0)}
                100%{transform: translate(0, 0)}
            }

            .triangle-float1 {
                animation: float1 5s infinite;
            }

            @keyframes float2 {
                0%{transform: translate(0, 0)}
                50%{transform: translate(-5px, -5px)}
                100%{transform: translate(0, 0)}
            }

            .triangle-float2 {
                animation: float2 4s infinite;
            }

            @keyframes float3 {
                0%{transform: translate(0, 0)}
                50%{transform: translate(0, -10px)}
                100%{transform: translate(0, 0)}
            }

            .triangle-float3 {
                animation: float3 6s infinite;
            }
        </style></defs></svg>