<svg xmlns="http://www.w3.org/2000/svg" version="1.1" xmlns:xlink="http://www.w3.org/1999/xlink" xmlns:svgjs="http://svgjs.com/svgjs" width="2000" height="2000" preserveAspectRatio="none" viewBox="0 0 2000 2000"><g mask="url(&quot;#SvgjsMask1594&quot;)" fill="none"><rect width="2000" height="2000" x="0" y="0" fill="#0e2a47"></rect><path d="M43.55 1612.48L102.44 1646.48L102.44 1714.48L43.55 1748.48L-15.34 1714.48L-15.34 1646.48zM220.22 1510.48L279.12 1544.48L279.12 1612.48L220.22 1646.48L161.33 1612.48L161.33 1544.48zM279.12 1000.48L338.01 1034.48L338.01 1102.48L279.12 1136.48L220.22 1102.48L220.22 1034.48zM279.12 2020.48L338.01 2054.48L338.01 2122.48L279.12 2156.48L220.22 2122.48L220.22 2054.48zM455.79 286.48L514.68 320.48L514.68 388.48L455.79 422.48L396.9 388.48L396.9 320.48zM396.9 796.48L455.79 830.48L455.79 898.48L396.9 932.48L338.01 898.48L338.01 830.48zM455.79 1306.48L514.68 1340.48L514.68 1408.48L455.79 1442.48L396.9 1408.48L396.9 1340.48zM455.79 1510.48L514.68 1544.48L514.68 1612.48L455.79 1646.48L396.9 1612.48L396.9 1544.48zM514.68 1816.48L573.57 1850.48L573.57 1918.48L514.68 1952.48L455.79 1918.48L455.79 1850.48zM632.46 1612.48L691.36 1646.48L691.36 1714.48L632.46 1748.48L573.57 1714.48L573.57 1646.48zM632.46 1816.48L691.36 1850.48L691.36 1918.48L632.46 1952.48L573.57 1918.48L573.57 1850.48zM809.14 82.48L868.03 116.48L868.03 184.48L809.14 218.48L750.25 184.48L750.25 116.48zM809.14 1102.48L868.03 1136.48L868.03 1204.48L809.14 1238.48L750.25 1204.48L750.25 1136.48zM750.25 1408.48L809.14 1442.48L809.14 1510.48L750.25 1544.48L691.36 1510.48L691.36 1442.48zM750.25 1816.48L809.14 1850.48L809.14 1918.48L750.25 1952.48L691.36 1918.48L691.36 1850.48zM750.25 2020.48L809.14 2054.48L809.14 2122.48L750.25 2156.48L691.36 2122.48L691.36 2054.48zM985.81 1816.48L1044.7 1850.48L1044.7 1918.48L985.81 1952.48L926.92 1918.48L926.92 1850.48zM1103.6 388.48L1162.49 422.48L1162.49 490.48L1103.6 524.48L1044.7 490.48L1044.7 422.48zM1162.49 694.48L1221.38 728.48L1221.38 796.48L1162.49 830.48L1103.6 796.48L1103.6 728.48zM1162.49 1510.48L1221.38 1544.48L1221.38 1612.48L1162.49 1646.48L1103.6 1612.48L1103.6 1544.48zM1221.38 388.48L1280.27 422.48L1280.27 490.48L1221.38 524.48L1162.49 490.48L1162.49 422.48zM1221.38 1816.48L1280.27 1850.48L1280.27 1918.48L1221.38 1952.48L1162.49 1918.48L1162.49 1850.48zM1339.16 1000.48L1398.05 1034.48L1398.05 1102.48L1339.16 1136.48L1280.27 1102.48L1280.27 1034.48zM1398.05 1510.48L1456.94 1544.48L1456.94 1612.48L1398.05 1646.48L1339.16 1612.48L1339.16 1544.48zM1456.94 592.48L1515.83 626.48L1515.83 694.48L1456.94 728.48L1398.05 694.48L1398.05 626.48zM1456.94 1204.48L1515.83 1238.48L1515.83 1306.48L1456.94 1340.48L1398.05 1306.48L1398.05 1238.48zM1633.62 490.48L1692.51 524.48L1692.51 592.48L1633.62 626.48L1574.73 592.48L1574.73 524.48zM1751.4 82.48L1810.29 116.48L1810.29 184.48L1751.4 218.48L1692.51 184.48L1692.51 116.48zM1751.4 694.48L1810.29 728.48L1810.29 796.48L1751.4 830.48L1692.51 796.48L1692.51 728.48zM1692.51 1000.48L1751.4 1034.48L1751.4 1102.48L1692.51 1136.48L1633.62 1102.48L1633.62 1034.48zM1928.07 1816.48L1986.97 1850.48L1986.97 1918.48L1928.07 1952.48L1869.18 1918.48L1869.18 1850.48z" stroke="url(#SvgjsLinearGradient1595)" stroke-width="2"></path><path d="M36.75 1612.48 a6.8 6.8 0 1 0 13.6 0 a6.8 6.8 0 1 0 -13.6 0zM95.64 1646.48 a6.8 6.8 0 1 0 13.6 0 a6.8 6.8 0 1 0 -13.6 0zM95.64 1714.48 a6.8 6.8 0 1 0 13.6 0 a6.8 6.8 0 1 0 -13.6 0zM36.75 1748.48 a6.8 6.8 0 1 0 13.6 0 a6.8 6.8 0 1 0 -13.6 0zM-22.14 1714.48 a6.8 6.8 0 1 0 13.6 0 a6.8 6.8 0 1 0 -13.6 0zM-22.14 1646.48 a6.8 6.8 0 1 0 13.6 0 a6.8 6.8 0 1 0 -13.6 0zM213.42 1510.48 a6.8 6.8 0 1 0 13.6 0 a6.8 6.8 0 1 0 -13.6 0zM272.32 1544.48 a6.8 6.8 0 1 0 13.6 0 a6.8 6.8 0 1 0 -13.6 0zM272.32 1612.48 a6.8 6.8 0 1 0 13.6 0 a6.8 6.8 0 1 0 -13.6 0zM213.42 1646.48 a6.8 6.8 0 1 0 13.6 0 a6.8 6.8 0 1 0 -13.6 0zM154.53 1612.48 a6.8 6.8 0 1 0 13.6 0 a6.8 6.8 0 1 0 -13.6 0zM154.53 1544.48 a6.8 6.8 0 1 0 13.6 0 a6.8 6.8 0 1 0 -13.6 0zM272.32 1000.48 a6.8 6.8 0 1 0 13.6 0 a6.8 6.8 0 1 0 -13.6 0zM331.21 1034.48 a6.8 6.8 0 1 0 13.6 0 a6.8 6.8 0 1 0 -13.6 0zM331.21 1102.48 a6.8 6.8 0 1 0 13.6 0 a6.8 6.8 0 1 0 -13.6 0zM272.32 1136.48 a6.8 6.8 0 1 0 13.6 0 a6.8 6.8 0 1 0 -13.6 0zM213.42 1102.48 a6.8 6.8 0 1 0 13.6 0 a6.8 6.8 0 1 0 -13.6 0zM213.42 1034.48 a6.8 6.8 0 1 0 13.6 0 a6.8 6.8 0 1 0 -13.6 0zM272.32 2020.48 a6.8 6.8 0 1 0 13.6 0 a6.8 6.8 0 1 0 -13.6 0zM331.21 2054.48 a6.8 6.8 0 1 0 13.6 0 a6.8 6.8 0 1 0 -13.6 0zM331.21 2122.48 a6.8 6.8 0 1 0 13.6 0 a6.8 6.8 0 1 0 -13.6 0zM272.32 2156.48 a6.8 6.8 0 1 0 13.6 0 a6.8 6.8 0 1 0 -13.6 0zM213.42 2122.48 a6.8 6.8 0 1 0 13.6 0 a6.8 6.8 0 1 0 -13.6 0zM213.42 2054.48 a6.8 6.8 0 1 0 13.6 0 a6.8 6.8 0 1 0 -13.6 0zM448.99 286.48 a6.8 6.8 0 1 0 13.6 0 a6.8 6.8 0 1 0 -13.6 0zM507.88 320.48 a6.8 6.8 0 1 0 13.6 0 a6.8 6.8 0 1 0 -13.6 0zM507.88 388.48 a6.8 6.8 0 1 0 13.6 0 a6.8 6.8 0 1 0 -13.6 0zM448.99 422.48 a6.8 6.8 0 1 0 13.6 0 a6.8 6.8 0 1 0 -13.6 0zM390.1 388.48 a6.8 6.8 0 1 0 13.6 0 a6.8 6.8 0 1 0 -13.6 0zM390.1 320.48 a6.8 6.8 0 1 0 13.6 0 a6.8 6.8 0 1 0 -13.6 0zM390.1 796.48 a6.8 6.8 0 1 0 13.6 0 a6.8 6.8 0 1 0 -13.6 0zM448.99 830.48 a6.8 6.8 0 1 0 13.6 0 a6.8 6.8 0 1 0 -13.6 0zM448.99 898.48 a6.8 6.8 0 1 0 13.6 0 a6.8 6.8 0 1 0 -13.6 0zM390.1 932.48 a6.8 6.8 0 1 0 13.6 0 a6.8 6.8 0 1 0 -13.6 0zM331.21 898.48 a6.8 6.8 0 1 0 13.6 0 a6.8 6.8 0 1 0 -13.6 0zM331.21 830.48 a6.8 6.8 0 1 0 13.6 0 a6.8 6.8 0 1 0 -13.6 0zM448.99 1306.48 a6.8 6.8 0 1 0 13.6 0 a6.8 6.8 0 1 0 -13.6 0zM507.88 1340.48 a6.8 6.8 0 1 0 13.6 0 a6.8 6.8 0 1 0 -13.6 0zM507.88 1408.48 a6.8 6.8 0 1 0 13.6 0 a6.8 6.8 0 1 0 -13.6 0zM448.99 1442.48 a6.8 6.8 0 1 0 13.6 0 a6.8 6.8 0 1 0 -13.6 0zM390.1 1408.48 a6.8 6.8 0 1 0 13.6 0 a6.8 6.8 0 1 0 -13.6 0zM390.1 1340.48 a6.8 6.8 0 1 0 13.6 0 a6.8 6.8 0 1 0 -13.6 0zM448.99 1510.48 a6.8 6.8 0 1 0 13.6 0 a6.8 6.8 0 1 0 -13.6 0zM507.88 1544.48 a6.8 6.8 0 1 0 13.6 0 a6.8 6.8 0 1 0 -13.6 0zM507.88 1612.48 a6.8 6.8 0 1 0 13.6 0 a6.8 6.8 0 1 0 -13.6 0zM448.99 1646.48 a6.8 6.8 0 1 0 13.6 0 a6.8 6.8 0 1 0 -13.6 0zM390.1 1612.48 a6.8 6.8 0 1 0 13.6 0 a6.8 6.8 0 1 0 -13.6 0zM390.1 1544.48 a6.8 6.8 0 1 0 13.6 0 a6.8 6.8 0 1 0 -13.6 0zM507.88 1816.48 a6.8 6.8 0 1 0 13.6 0 a6.8 6.8 0 1 0 -13.6 0zM566.77 1850.48 a6.8 6.8 0 1 0 13.6 0 a6.8 6.8 0 1 0 -13.6 0zM566.77 1918.48 a6.8 6.8 0 1 0 13.6 0 a6.8 6.8 0 1 0 -13.6 0zM507.88 1952.48 a6.8 6.8 0 1 0 13.6 0 a6.8 6.8 0 1 0 -13.6 0zM448.99 1918.48 a6.8 6.8 0 1 0 13.6 0 a6.8 6.8 0 1 0 -13.6 0zM448.99 1850.48 a6.8 6.8 0 1 0 13.6 0 a6.8 6.8 0 1 0 -13.6 0zM625.66 1612.48 a6.8 6.8 0 1 0 13.6 0 a6.8 6.8 0 1 0 -13.6 0zM684.56 1646.48 a6.8 6.8 0 1 0 13.6 0 a6.8 6.8 0 1 0 -13.6 0zM684.56 1714.48 a6.8 6.8 0 1 0 13.6 0 a6.8 6.8 0 1 0 -13.6 0zM625.66 1748.48 a6.8 6.8 0 1 0 13.6 0 a6.8 6.8 0 1 0 -13.6 0zM566.77 1714.48 a6.8 6.8 0 1 0 13.6 0 a6.8 6.8 0 1 0 -13.6 0zM566.77 1646.48 a6.8 6.8 0 1 0 13.6 0 a6.8 6.8 0 1 0 -13.6 0zM625.66 1816.48 a6.8 6.8 0 1 0 13.6 0 a6.8 6.8 0 1 0 -13.6 0zM684.56 1850.48 a6.8 6.8 0 1 0 13.6 0 a6.8 6.8 0 1 0 -13.6 0zM684.56 1918.48 a6.8 6.8 0 1 0 13.6 0 a6.8 6.8 0 1 0 -13.6 0zM625.66 1952.48 a6.8 6.8 0 1 0 13.6 0 a6.8 6.8 0 1 0 -13.6 0zM802.34 82.48 a6.8 6.8 0 1 0 13.6 0 a6.8 6.8 0 1 0 -13.6 0zM861.23 116.48 a6.8 6.8 0 1 0 13.6 0 a6.8 6.8 0 1 0 -13.6 0zM861.23 184.48 a6.8 6.8 0 1 0 13.6 0 a6.8 6.8 0 1 0 -13.6 0zM802.34 218.48 a6.8 6.8 0 1 0 13.6 0 a6.8 6.8 0 1 0 -13.6 0zM743.45 184.48 a6.8 6.8 0 1 0 13.6 0 a6.8 6.8 0 1 0 -13.6 0zM743.45 116.48 a6.8 6.8 0 1 0 13.6 0 a6.8 6.8 0 1 0 -13.6 0zM802.34 1102.48 a6.8 6.8 0 1 0 13.6 0 a6.8 6.8 0 1 0 -13.6 0zM861.23 1136.48 a6.8 6.8 0 1 0 13.6 0 a6.8 6.8 0 1 0 -13.6 0zM861.23 1204.48 a6.8 6.8 0 1 0 13.6 0 a6.8 6.8 0 1 0 -13.6 0zM802.34 1238.48 a6.8 6.8 0 1 0 13.6 0 a6.8 6.8 0 1 0 -13.6 0zM743.45 1204.48 a6.8 6.8 0 1 0 13.6 0 a6.8 6.8 0 1 0 -13.6 0zM743.45 1136.48 a6.8 6.8 0 1 0 13.6 0 a6.8 6.8 0 1 0 -13.6 0zM743.45 1408.48 a6.8 6.8 0 1 0 13.6 0 a6.8 6.8 0 1 0 -13.6 0zM802.34 1442.48 a6.8 6.8 0 1 0 13.6 0 a6.8 6.8 0 1 0 -13.6 0zM802.34 1510.48 a6.8 6.8 0 1 0 13.6 0 a6.8 6.8 0 1 0 -13.6 0zM743.45 1544.48 a6.8 6.8 0 1 0 13.6 0 a6.8 6.8 0 1 0 -13.6 0zM684.56 1510.48 a6.8 6.8 0 1 0 13.6 0 a6.8 6.8 0 1 0 -13.6 0zM684.56 1442.48 a6.8 6.8 0 1 0 13.6 0 a6.8 6.8 0 1 0 -13.6 0zM743.45 1816.48 a6.8 6.8 0 1 0 13.6 0 a6.8 6.8 0 1 0 -13.6 0zM802.34 1850.48 a6.8 6.8 0 1 0 13.6 0 a6.8 6.8 0 1 0 -13.6 0zM802.34 1918.48 a6.8 6.8 0 1 0 13.6 0 a6.8 6.8 0 1 0 -13.6 0zM743.45 1952.48 a6.8 6.8 0 1 0 13.6 0 a6.8 6.8 0 1 0 -13.6 0zM743.45 2020.48 a6.8 6.8 0 1 0 13.6 0 a6.8 6.8 0 1 0 -13.6 0zM802.34 2054.48 a6.8 6.8 0 1 0 13.6 0 a6.8 6.8 0 1 0 -13.6 0zM802.34 2122.48 a6.8 6.8 0 1 0 13.6 0 a6.8 6.8 0 1 0 -13.6 0zM743.45 2156.48 a6.8 6.8 0 1 0 13.6 0 a6.8 6.8 0 1 0 -13.6 0zM684.56 2122.48 a6.8 6.8 0 1 0 13.6 0 a6.8 6.8 0 1 0 -13.6 0zM684.56 2054.48 a6.8 6.8 0 1 0 13.6 0 a6.8 6.8 0 1 0 -13.6 0zM979.01 1816.48 a6.8 6.8 0 1 0 13.6 0 a6.8 6.8 0 1 0 -13.6 0zM1037.9 1850.48 a6.8 6.8 0 1 0 13.6 0 a6.8 6.8 0 1 0 -13.6 0zM1037.9 1918.48 a6.8 6.8 0 1 0 13.6 0 a6.8 6.8 0 1 0 -13.6 0zM979.01 1952.48 a6.8 6.8 0 1 0 13.6 0 a6.8 6.8 0 1 0 -13.6 0zM920.12 1918.48 a6.8 6.8 0 1 0 13.6 0 a6.8 6.8 0 1 0 -13.6 0zM920.12 1850.48 a6.8 6.8 0 1 0 13.6 0 a6.8 6.8 0 1 0 -13.6 0zM1096.8 388.48 a6.8 6.8 0 1 0 13.6 0 a6.8 6.8 0 1 0 -13.6 0zM1155.69 422.48 a6.8 6.8 0 1 0 13.6 0 a6.8 6.8 0 1 0 -13.6 0zM1155.69 490.48 a6.8 6.8 0 1 0 13.6 0 a6.8 6.8 0 1 0 -13.6 0zM1096.8 524.48 a6.8 6.8 0 1 0 13.6 0 a6.8 6.8 0 1 0 -13.6 0zM1037.9 490.48 a6.8 6.8 0 1 0 13.6 0 a6.8 6.8 0 1 0 -13.6 0zM1037.9 422.48 a6.8 6.8 0 1 0 13.6 0 a6.8 6.8 0 1 0 -13.6 0zM1155.69 694.48 a6.8 6.8 0 1 0 13.6 0 a6.8 6.8 0 1 0 -13.6 0zM1214.58 728.48 a6.8 6.8 0 1 0 13.6 0 a6.8 6.8 0 1 0 -13.6 0zM1214.58 796.48 a6.8 6.8 0 1 0 13.6 0 a6.8 6.8 0 1 0 -13.6 0zM1155.69 830.48 a6.8 6.8 0 1 0 13.6 0 a6.8 6.8 0 1 0 -13.6 0zM1096.8 796.48 a6.8 6.8 0 1 0 13.6 0 a6.8 6.8 0 1 0 -13.6 0zM1096.8 728.48 a6.8 6.8 0 1 0 13.6 0 a6.8 6.8 0 1 0 -13.6 0zM1155.69 1510.48 a6.8 6.8 0 1 0 13.6 0 a6.8 6.8 0 1 0 -13.6 0zM1214.58 1544.48 a6.8 6.8 0 1 0 13.6 0 a6.8 6.8 0 1 0 -13.6 0zM1214.58 1612.48 a6.8 6.8 0 1 0 13.6 0 a6.8 6.8 0 1 0 -13.6 0zM1155.69 1646.48 a6.8 6.8 0 1 0 13.6 0 a6.8 6.8 0 1 0 -13.6 0zM1096.8 1612.48 a6.8 6.8 0 1 0 13.6 0 a6.8 6.8 0 1 0 -13.6 0zM1096.8 1544.48 a6.8 6.8 0 1 0 13.6 0 a6.8 6.8 0 1 0 -13.6 0zM1214.58 388.48 a6.8 6.8 0 1 0 13.6 0 a6.8 6.8 0 1 0 -13.6 0zM1273.47 422.48 a6.8 6.8 0 1 0 13.6 0 a6.8 6.8 0 1 0 -13.6 0zM1273.47 490.48 a6.8 6.8 0 1 0 13.6 0 a6.8 6.8 0 1 0 -13.6 0zM1214.58 524.48 a6.8 6.8 0 1 0 13.6 0 a6.8 6.8 0 1 0 -13.6 0zM1214.58 1816.48 a6.8 6.8 0 1 0 13.6 0 a6.8 6.8 0 1 0 -13.6 0zM1273.47 1850.48 a6.8 6.8 0 1 0 13.6 0 a6.8 6.8 0 1 0 -13.6 0zM1273.47 1918.48 a6.8 6.8 0 1 0 13.6 0 a6.8 6.8 0 1 0 -13.6 0zM1214.58 1952.48 a6.8 6.8 0 1 0 13.6 0 a6.8 6.8 0 1 0 -13.6 0zM1155.69 1918.48 a6.8 6.8 0 1 0 13.6 0 a6.8 6.8 0 1 0 -13.6 0zM1155.69 1850.48 a6.8 6.8 0 1 0 13.6 0 a6.8 6.8 0 1 0 -13.6 0zM1332.36 1000.48 a6.8 6.8 0 1 0 13.6 0 a6.8 6.8 0 1 0 -13.6 0zM1391.25 1034.48 a6.8 6.8 0 1 0 13.6 0 a6.8 6.8 0 1 0 -13.6 0zM1391.25 1102.48 a6.8 6.8 0 1 0 13.6 0 a6.8 6.8 0 1 0 -13.6 0zM1332.36 1136.48 a6.8 6.8 0 1 0 13.6 0 a6.8 6.8 0 1 0 -13.6 0zM1273.47 1102.48 a6.8 6.8 0 1 0 13.6 0 a6.8 6.8 0 1 0 -13.6 0zM1273.47 1034.48 a6.8 6.8 0 1 0 13.6 0 a6.8 6.8 0 1 0 -13.6 0zM1391.25 1510.48 a6.8 6.8 0 1 0 13.6 0 a6.8 6.8 0 1 0 -13.6 0zM1450.14 1544.48 a6.8 6.8 0 1 0 13.6 0 a6.8 6.8 0 1 0 -13.6 0zM1450.14 1612.48 a6.8 6.8 0 1 0 13.6 0 a6.8 6.8 0 1 0 -13.6 0zM1391.25 1646.48 a6.8 6.8 0 1 0 13.6 0 a6.8 6.8 0 1 0 -13.6 0zM1332.36 1612.48 a6.8 6.8 0 1 0 13.6 0 a6.8 6.8 0 1 0 -13.6 0zM1332.36 1544.48 a6.8 6.8 0 1 0 13.6 0 a6.8 6.8 0 1 0 -13.6 0zM1450.14 592.48 a6.8 6.8 0 1 0 13.6 0 a6.8 6.8 0 1 0 -13.6 0zM1509.03 626.48 a6.8 6.8 0 1 0 13.6 0 a6.8 6.8 0 1 0 -13.6 0zM1509.03 694.48 a6.8 6.8 0 1 0 13.6 0 a6.8 6.8 0 1 0 -13.6 0zM1450.14 728.48 a6.8 6.8 0 1 0 13.6 0 a6.8 6.8 0 1 0 -13.6 0zM1391.25 694.48 a6.8 6.8 0 1 0 13.6 0 a6.8 6.8 0 1 0 -13.6 0zM1391.25 626.48 a6.8 6.8 0 1 0 13.6 0 a6.8 6.8 0 1 0 -13.6 0zM1450.14 1204.48 a6.8 6.8 0 1 0 13.6 0 a6.8 6.8 0 1 0 -13.6 0zM1509.03 1238.48 a6.8 6.8 0 1 0 13.6 0 a6.8 6.8 0 1 0 -13.6 0zM1509.03 1306.48 a6.8 6.8 0 1 0 13.6 0 a6.8 6.8 0 1 0 -13.6 0zM1450.14 1340.48 a6.8 6.8 0 1 0 13.6 0 a6.8 6.8 0 1 0 -13.6 0zM1391.25 1306.48 a6.8 6.8 0 1 0 13.6 0 a6.8 6.8 0 1 0 -13.6 0zM1391.25 1238.48 a6.8 6.8 0 1 0 13.6 0 a6.8 6.8 0 1 0 -13.6 0zM1626.82 490.48 a6.8 6.8 0 1 0 13.6 0 a6.8 6.8 0 1 0 -13.6 0zM1685.71 524.48 a6.8 6.8 0 1 0 13.6 0 a6.8 6.8 0 1 0 -13.6 0zM1685.71 592.48 a6.8 6.8 0 1 0 13.6 0 a6.8 6.8 0 1 0 -13.6 0zM1626.82 626.48 a6.8 6.8 0 1 0 13.6 0 a6.8 6.8 0 1 0 -13.6 0zM1567.93 592.48 a6.8 6.8 0 1 0 13.6 0 a6.8 6.8 0 1 0 -13.6 0zM1567.93 524.48 a6.8 6.8 0 1 0 13.6 0 a6.8 6.8 0 1 0 -13.6 0zM1744.6 82.48 a6.8 6.8 0 1 0 13.6 0 a6.8 6.8 0 1 0 -13.6 0zM1803.49 116.48 a6.8 6.8 0 1 0 13.6 0 a6.8 6.8 0 1 0 -13.6 0zM1803.49 184.48 a6.8 6.8 0 1 0 13.6 0 a6.8 6.8 0 1 0 -13.6 0zM1744.6 218.48 a6.8 6.8 0 1 0 13.6 0 a6.8 6.8 0 1 0 -13.6 0zM1685.71 184.48 a6.8 6.8 0 1 0 13.6 0 a6.8 6.8 0 1 0 -13.6 0zM1685.71 116.48 a6.8 6.8 0 1 0 13.6 0 a6.8 6.8 0 1 0 -13.6 0zM1744.6 694.48 a6.8 6.8 0 1 0 13.6 0 a6.8 6.8 0 1 0 -13.6 0zM1803.49 728.48 a6.8 6.8 0 1 0 13.6 0 a6.8 6.8 0 1 0 -13.6 0zM1803.49 796.48 a6.8 6.8 0 1 0 13.6 0 a6.8 6.8 0 1 0 -13.6 0zM1744.6 830.48 a6.8 6.8 0 1 0 13.6 0 a6.8 6.8 0 1 0 -13.6 0zM1685.71 796.48 a6.8 6.8 0 1 0 13.6 0 a6.8 6.8 0 1 0 -13.6 0zM1685.71 728.48 a6.8 6.8 0 1 0 13.6 0 a6.8 6.8 0 1 0 -13.6 0zM1685.71 1000.48 a6.8 6.8 0 1 0 13.6 0 a6.8 6.8 0 1 0 -13.6 0zM1744.6 1034.48 a6.8 6.8 0 1 0 13.6 0 a6.8 6.8 0 1 0 -13.6 0zM1744.6 1102.48 a6.8 6.8 0 1 0 13.6 0 a6.8 6.8 0 1 0 -13.6 0zM1685.71 1136.48 a6.8 6.8 0 1 0 13.6 0 a6.8 6.8 0 1 0 -13.6 0zM1626.82 1102.48 a6.8 6.8 0 1 0 13.6 0 a6.8 6.8 0 1 0 -13.6 0zM1626.82 1034.48 a6.8 6.8 0 1 0 13.6 0 a6.8 6.8 0 1 0 -13.6 0zM1921.27 1816.48 a6.8 6.8 0 1 0 13.6 0 a6.8 6.8 0 1 0 -13.6 0zM1980.17 1850.48 a6.8 6.8 0 1 0 13.6 0 a6.8 6.8 0 1 0 -13.6 0zM1980.17 1918.48 a6.8 6.8 0 1 0 13.6 0 a6.8 6.8 0 1 0 -13.6 0zM1921.27 1952.48 a6.8 6.8 0 1 0 13.6 0 a6.8 6.8 0 1 0 -13.6 0zM1862.38 1918.48 a6.8 6.8 0 1 0 13.6 0 a6.8 6.8 0 1 0 -13.6 0zM1862.38 1850.48 a6.8 6.8 0 1 0 13.6 0 a6.8 6.8 0 1 0 -13.6 0z" fill="url(#SvgjsLinearGradient1595)"></path><path d="M30.01 -26.39L73.31 -1.39L73.31 48.61L30.01 73.61L-13.29 48.61L-13.29 -1.39zM73.31 48.61L116.62 73.61L116.62 123.61L73.31 148.61L30.01 123.61L30.01 73.61zM30.01 123.61L73.31 148.61L73.31 198.61L30.01 223.61L-13.29 198.61L-13.29 148.61zM73.31 348.61L116.62 373.61L116.62 423.61L73.31 448.61L30.01 423.61L30.01 373.61zM30.01 723.61L73.31 748.61L73.31 798.61L30.01 823.61L-13.29 798.61L-13.29 748.61zM73.31 948.61L116.62 973.61L116.62 1023.61L73.31 1048.61L30.01 1023.61L30.01 973.61zM73.31 1248.61L116.62 1273.61L116.62 1323.61L73.31 1348.61L30.01 1323.61L30.01 1273.61zM30.01 1323.61L73.31 1348.61L73.31 1398.61L30.01 1423.61L-13.29 1398.61L-13.29 1348.61zM73.31 1398.61L116.62 1423.61L116.62 1473.61L73.31 1498.61L30.01 1473.61L30.01 1423.61zM30.01 1623.61L73.31 1648.61L73.31 1698.61L30.01 1723.61L-13.29 1698.61L-13.29 1648.61zM73.31 1698.61L116.62 1723.61L116.62 1773.61L73.31 1798.61L30.01 1773.61L30.01 1723.61zM30.01 1773.61L73.31 1798.61L73.31 1848.61L30.01 1873.61L-13.29 1848.61L-13.29 1798.61zM116.62 -26.39L159.92 -1.39L159.92 48.61L116.62 73.61L73.31 48.61L73.31 -1.39zM116.62 123.61L159.92 148.61L159.92 198.61L116.62 223.61L73.31 198.61L73.31 148.61zM116.62 273.61L159.92 298.61L159.92 348.61L116.62 373.61L73.31 348.61L73.31 298.61zM116.62 423.61L159.92 448.61L159.92 498.61L116.62 523.61L73.31 498.61L73.31 448.61zM116.62 723.61L159.92 748.61L159.92 798.61L116.62 823.61L73.31 798.61L73.31 748.61zM116.62 873.61L159.92 898.61L159.92 948.61L116.62 973.61L73.31 948.61L73.31 898.61zM159.92 948.61L203.22 973.61L203.22 1023.61L159.92 1048.61L116.62 1023.61L116.62 973.61zM116.62 1023.61L159.92 1048.61L159.92 1098.61L116.62 1123.61L73.31 1098.61L73.31 1048.61zM159.92 1098.61L203.22 1123.61L203.22 1173.61L159.92 1198.61L116.62 1173.61L116.62 1123.61zM116.62 1173.61L159.92 1198.61L159.92 1248.61L116.62 1273.61L73.31 1248.61L73.31 1198.61zM159.92 1248.61L203.22 1273.61L203.22 1323.61L159.92 1348.61L116.62 1323.61L116.62 1273.61zM159.92 1398.61L203.22 1423.61L203.22 1473.61L159.92 1498.61L116.62 1473.61L116.62 1423.61zM116.62 1473.61L159.92 1498.61L159.92 1548.61L116.62 1573.61L73.31 1548.61L73.31 1498.61zM159.92 1548.61L203.22 1573.61L203.22 1623.61L159.92 1648.61L116.62 1623.61L116.62 1573.61zM116.62 1773.61L159.92 1798.61L159.92 1848.61L116.62 1873.61L73.31 1848.61L73.31 1798.61zM116.62 1923.61L159.92 1948.61L159.92 1998.61L116.62 2023.61L73.31 1998.61L73.31 1948.61zM159.92 1998.61L203.22 2023.61L203.22 2073.61L159.92 2098.61L116.62 2073.61L116.62 2023.61zM246.52 48.61L289.82 73.61L289.82 123.61L246.52 148.61L203.22 123.61L203.22 73.61zM203.22 123.61L246.52 148.61L246.52 198.61L203.22 223.61L159.92 198.61L159.92 148.61zM203.22 423.61L246.52 448.61L246.52 498.61L203.22 523.61L159.92 498.61L159.92 448.61zM246.52 498.61L289.82 523.61L289.82 573.61L246.52 598.61L203.22 573.61L203.22 523.61zM246.52 648.61L289.82 673.61L289.82 723.61L246.52 748.61L203.22 723.61L203.22 673.61zM203.22 723.61L246.52 748.61L246.52 798.61L203.22 823.61L159.92 798.61L159.92 748.61zM203.22 873.61L246.52 898.61L246.52 948.61L203.22 973.61L159.92 948.61L159.92 898.61zM203.22 1173.61L246.52 1198.61L246.52 1248.61L203.22 1273.61L159.92 1248.61L159.92 1198.61zM246.52 1248.61L289.82 1273.61L289.82 1323.61L246.52 1348.61L203.22 1323.61L203.22 1273.61zM246.52 1398.61L289.82 1423.61L289.82 1473.61L246.52 1498.61L203.22 1473.61L203.22 1423.61zM203.22 1473.61L246.52 1498.61L246.52 1548.61L203.22 1573.61L159.92 1548.61L159.92 1498.61zM203.22 1623.61L246.52 1648.61L246.52 1698.61L203.22 1723.61L159.92 1698.61L159.92 1648.61zM333.13 48.61L376.43 73.61L376.43 123.61L333.13 148.61L289.82 123.61L289.82 73.61zM289.82 273.61L333.13 298.61L333.13 348.61L289.82 373.61L246.52 348.61L246.52 298.61zM333.13 498.61L376.43 523.61L376.43 573.61L333.13 598.61L289.82 573.61L289.82 523.61zM289.82 573.61L333.13 598.61L333.13 648.61L289.82 673.61L246.52 648.61L246.52 598.61zM289.82 723.61L333.13 748.61L333.13 798.61L289.82 823.61L246.52 798.61L246.52 748.61zM333.13 798.61L376.43 823.61L376.43 873.61L333.13 898.61L289.82 873.61L289.82 823.61zM333.13 1098.61L376.43 1123.61L376.43 1173.61L333.13 1198.61L289.82 1173.61L289.82 1123.61zM333.13 1548.61L376.43 1573.61L376.43 1623.61L333.13 1648.61L289.82 1623.61L289.82 1573.61zM333.13 1698.61L376.43 1723.61L376.43 1773.61L333.13 1798.61L289.82 1773.61L289.82 1723.61zM289.82 1773.61L333.13 1798.61L333.13 1848.61L289.82 1873.61L246.52 1848.61L246.52 1798.61zM333.13 1848.61L376.43 1873.61L376.43 1923.61L333.13 1948.61L289.82 1923.61L289.82 1873.61zM289.82 1923.61L333.13 1948.61L333.13 1998.61L289.82 2023.61L246.52 1998.61L246.52 1948.61zM376.43 123.61L419.73 148.61L419.73 198.61L376.43 223.61L333.13 198.61L333.13 148.61zM376.43 273.61L419.73 298.61L419.73 348.61L376.43 373.61L333.13 348.61L333.13 298.61zM419.73 498.61L463.04 523.61L463.04 573.61L419.73 598.61L376.43 573.61L376.43 523.61zM376.43 723.61L419.73 748.61L419.73 798.61L376.43 823.61L333.13 798.61L333.13 748.61zM419.73 948.61L463.04 973.61L463.04 1023.61L419.73 1048.61L376.43 1023.61L376.43 973.61zM376.43 1023.61L419.73 1048.61L419.73 1098.61L376.43 1123.61L333.13 1098.61L333.13 1048.61zM419.73 1098.61L463.04 1123.61L463.04 1173.61L419.73 1198.61L376.43 1173.61L376.43 1123.61zM419.73 1248.61L463.04 1273.61L463.04 1323.61L419.73 1348.61L376.43 1323.61L376.43 1273.61zM419.73 1398.61L463.04 1423.61L463.04 1473.61L419.73 1498.61L376.43 1473.61L376.43 1423.61zM376.43 1923.61L419.73 1948.61L419.73 1998.61L376.43 2023.61L333.13 1998.61L333.13 1948.61zM506.34 48.61L549.64 73.61L549.64 123.61L506.34 148.61L463.04 123.61L463.04 73.61zM463.04 123.61L506.34 148.61L506.34 198.61L463.04 223.61L419.73 198.61L419.73 148.61zM463.04 423.61L506.34 448.61L506.34 498.61L463.04 523.61L419.73 498.61L419.73 448.61zM463.04 573.61L506.34 598.61L506.34 648.61L463.04 673.61L419.73 648.61L419.73 598.61zM463.04 873.61L506.34 898.61L506.34 948.61L463.04 973.61L419.73 948.61L419.73 898.61zM506.34 948.61L549.64 973.61L549.64 1023.61L506.34 1048.61L463.04 1023.61L463.04 973.61zM463.04 1023.61L506.34 1048.61L506.34 1098.61L463.04 1123.61L419.73 1098.61L419.73 1048.61zM463.04 1323.61L506.34 1348.61L506.34 1398.61L463.04 1423.61L419.73 1398.61L419.73 1348.61zM463.04 1773.61L506.34 1798.61L506.34 1848.61L463.04 1873.61L419.73 1848.61L419.73 1798.61zM506.34 1848.61L549.64 1873.61L549.64 1923.61L506.34 1948.61L463.04 1923.61L463.04 1873.61zM506.34 1998.61L549.64 2023.61L549.64 2073.61L506.34 2098.61L463.04 2073.61L463.04 2023.61zM549.64 123.61L592.94 148.61L592.94 198.61L549.64 223.61L506.34 198.61L506.34 148.61zM549.64 273.61L592.94 298.61L592.94 348.61L549.64 373.61L506.34 348.61L506.34 298.61zM549.64 423.61L592.94 448.61L592.94 498.61L549.64 523.61L506.34 498.61L506.34 448.61zM592.94 798.61L636.25 823.61L636.25 873.61L592.94 898.61L549.64 873.61L549.64 823.61zM549.64 1023.61L592.94 1048.61L592.94 1098.61L549.64 1123.61L506.34 1098.61L506.34 1048.61zM592.94 1248.61L636.25 1273.61L636.25 1323.61L592.94 1348.61L549.64 1323.61L549.64 1273.61zM549.64 1323.61L592.94 1348.61L592.94 1398.61L549.64 1423.61L506.34 1398.61L506.34 1348.61zM592.94 1398.61L636.25 1423.61L636.25 1473.61L592.94 1498.61L549.64 1473.61L549.64 1423.61zM549.64 1473.61L592.94 1498.61L592.94 1548.61L549.64 1573.61L506.34 1548.61L506.34 1498.61zM592.94 1698.61L636.25 1723.61L636.25 1773.61L592.94 1798.61L549.64 1773.61L549.64 1723.61zM636.25 -26.39L679.55 -1.39L679.55 48.61L636.25 73.61L592.94 48.61L592.94 -1.39zM679.55 48.61L722.85 73.61L722.85 123.61L679.55 148.61L636.25 123.61L636.25 73.61zM679.55 198.61L722.85 223.61L722.85 273.61L679.55 298.61L636.25 273.61L636.25 223.61zM636.25 273.61L679.55 298.61L679.55 348.61L636.25 373.61L592.94 348.61L592.94 298.61zM636.25 423.61L679.55 448.61L679.55 498.61L636.25 523.61L592.94 498.61L592.94 448.61zM679.55 648.61L722.85 673.61L722.85 723.61L679.55 748.61L636.25 723.61L636.25 673.61zM636.25 723.61L679.55 748.61L679.55 798.61L636.25 823.61L592.94 798.61L592.94 748.61zM636.25 873.61L679.55 898.61L679.55 948.61L636.25 973.61L592.94 948.61L592.94 898.61zM636.25 1023.61L679.55 1048.61L679.55 1098.61L636.25 1123.61L592.94 1098.61L592.94 1048.61zM636.25 1323.61L679.55 1348.61L679.55 1398.61L636.25 1423.61L592.94 1398.61L592.94 1348.61zM679.55 1398.61L722.85 1423.61L722.85 1473.61L679.55 1498.61L636.25 1473.61L636.25 1423.61zM636.25 1623.61L679.55 1648.61L679.55 1698.61L636.25 1723.61L592.94 1698.61L592.94 1648.61zM679.55 1698.61L722.85 1723.61L722.85 1773.61L679.55 1798.61L636.25 1773.61L636.25 1723.61zM679.55 1998.61L722.85 2023.61L722.85 2073.61L679.55 2098.61L636.25 2073.61L636.25 2023.61zM766.15 48.61L809.46 73.61L809.46 123.61L766.15 148.61L722.85 123.61L722.85 73.61zM722.85 123.61L766.15 148.61L766.15 198.61L722.85 223.61L679.55 198.61L679.55 148.61zM722.85 273.61L766.15 298.61L766.15 348.61L722.85 373.61L679.55 348.61L679.55 298.61zM766.15 348.61L809.46 373.61L809.46 423.61L766.15 448.61L722.85 423.61L722.85 373.61zM766.15 648.61L809.46 673.61L809.46 723.61L766.15 748.61L722.85 723.61L722.85 673.61zM766.15 1098.61L809.46 1123.61L809.46 1173.61L766.15 1198.61L722.85 1173.61L722.85 1123.61zM722.85 1323.61L766.15 1348.61L766.15 1398.61L722.85 1423.61L679.55 1398.61L679.55 1348.61zM766.15 1698.61L809.46 1723.61L809.46 1773.61L766.15 1798.61L722.85 1773.61L722.85 1723.61zM722.85 1773.61L766.15 1798.61L766.15 1848.61L722.85 1873.61L679.55 1848.61L679.55 1798.61zM766.15 1848.61L809.46 1873.61L809.46 1923.61L766.15 1948.61L722.85 1923.61L722.85 1873.61zM809.46 -26.39L852.76 -1.39L852.76 48.61L809.46 73.61L766.15 48.61L766.15 -1.39zM809.46 123.61L852.76 148.61L852.76 198.61L809.46 223.61L766.15 198.61L766.15 148.61zM852.76 198.61L896.06 223.61L896.06 273.61L852.76 298.61L809.46 273.61L809.46 223.61zM852.76 348.61L896.06 373.61L896.06 423.61L852.76 448.61L809.46 423.61L809.46 373.61zM809.46 723.61L852.76 748.61L852.76 798.61L809.46 823.61L766.15 798.61L766.15 748.61zM852.76 798.61L896.06 823.61L896.06 873.61L852.76 898.61L809.46 873.61L809.46 823.61zM809.46 873.61L852.76 898.61L852.76 948.61L809.46 973.61L766.15 948.61L766.15 898.61zM809.46 1023.61L852.76 1048.61L852.76 1098.61L809.46 1123.61L766.15 1098.61L766.15 1048.61zM852.76 1098.61L896.06 1123.61L896.06 1173.61L852.76 1198.61L809.46 1173.61L809.46 1123.61zM809.46 1173.61L852.76 1198.61L852.76 1248.61L809.46 1273.61L766.15 1248.61L766.15 1198.61zM809.46 1623.61L852.76 1648.61L852.76 1698.61L809.46 1723.61L766.15 1698.61L766.15 1648.61zM852.76 1848.61L896.06 1873.61L896.06 1923.61L852.76 1948.61L809.46 1923.61L809.46 1873.61zM809.46 1923.61L852.76 1948.61L852.76 1998.61L809.46 2023.61L766.15 1998.61L766.15 1948.61zM896.06 -26.39L939.36 -1.39L939.36 48.61L896.06 73.61L852.76 48.61L852.76 -1.39zM939.36 48.61L982.67 73.61L982.67 123.61L939.36 148.61L896.06 123.61L896.06 73.61zM896.06 123.61L939.36 148.61L939.36 198.61L896.06 223.61L852.76 198.61L852.76 148.61zM939.36 198.61L982.67 223.61L982.67 273.61L939.36 298.61L896.06 273.61L896.06 223.61zM939.36 348.61L982.67 373.61L982.67 423.61L939.36 448.61L896.06 423.61L896.06 373.61zM896.06 423.61L939.36 448.61L939.36 498.61L896.06 523.61L852.76 498.61L852.76 448.61zM896.06 573.61L939.36 598.61L939.36 648.61L896.06 673.61L852.76 648.61L852.76 598.61zM939.36 648.61L982.67 673.61L982.67 723.61L939.36 748.61L896.06 723.61L896.06 673.61zM896.06 723.61L939.36 748.61L939.36 798.61L896.06 823.61L852.76 798.61L852.76 748.61zM896.06 873.61L939.36 898.61L939.36 948.61L896.06 973.61L852.76 948.61L852.76 898.61zM939.36 948.61L982.67 973.61L982.67 1023.61L939.36 1048.61L896.06 1023.61L896.06 973.61zM939.36 1098.61L982.67 1123.61L982.67 1173.61L939.36 1198.61L896.06 1173.61L896.06 1123.61zM939.36 1398.61L982.67 1423.61L982.67 1473.61L939.36 1498.61L896.06 1473.61L896.06 1423.61zM896.06 1623.61L939.36 1648.61L939.36 1698.61L896.06 1723.61L852.76 1698.61L852.76 1648.61zM939.36 1698.61L982.67 1723.61L982.67 1773.61L939.36 1798.61L896.06 1773.61L896.06 1723.61zM939.36 1848.61L982.67 1873.61L982.67 1923.61L939.36 1948.61L896.06 1923.61L896.06 1873.61zM939.36 1998.61L982.67 2023.61L982.67 2073.61L939.36 2098.61L896.06 2073.61L896.06 2023.61zM982.67 123.61L1025.97 148.61L1025.97 198.61L982.67 223.61L939.36 198.61L939.36 148.61zM1025.97 198.61L1069.27 223.61L1069.27 273.61L1025.97 298.61L982.67 273.61L982.67 223.61zM1025.97 348.61L1069.27 373.61L1069.27 423.61L1025.97 448.61L982.67 423.61L982.67 373.61zM982.67 423.61L1025.97 448.61L1025.97 498.61L982.67 523.61L939.36 498.61L939.36 448.61zM982.67 573.61L1025.97 598.61L1025.97 648.61L982.67 673.61L939.36 648.61L939.36 598.61zM982.67 723.61L1025.97 748.61L1025.97 798.61L982.67 823.61L939.36 798.61L939.36 748.61zM1025.97 798.61L1069.27 823.61L1069.27 873.61L1025.97 898.61L982.67 873.61L982.67 823.61zM982.67 1173.61L1025.97 1198.61L1025.97 1248.61L982.67 1273.61L939.36 1248.61L939.36 1198.61zM1025.97 1548.61L1069.27 1573.61L1069.27 1623.61L1025.97 1648.61L982.67 1623.61L982.67 1573.61zM982.67 1623.61L1025.97 1648.61L1025.97 1698.61L982.67 1723.61L939.36 1698.61L939.36 1648.61zM982.67 1773.61L1025.97 1798.61L1025.97 1848.61L982.67 1873.61L939.36 1848.61L939.36 1798.61zM1069.27 -26.39L1112.57 -1.39L1112.57 48.61L1069.27 73.61L1025.97 48.61L1025.97 -1.39zM1112.57 48.61L1155.88 73.61L1155.88 123.61L1112.57 148.61L1069.27 123.61L1069.27 73.61zM1112.57 198.61L1155.88 223.61L1155.88 273.61L1112.57 298.61L1069.27 273.61L1069.27 223.61zM1069.27 273.61L1112.57 298.61L1112.57 348.61L1069.27 373.61L1025.97 348.61L1025.97 298.61zM1112.57 348.61L1155.88 373.61L1155.88 423.61L1112.57 448.61L1069.27 423.61L1069.27 373.61zM1112.57 498.61L1155.88 523.61L1155.88 573.61L1112.57 598.61L1069.27 573.61L1069.27 523.61zM1112.57 948.61L1155.88 973.61L1155.88 1023.61L1112.57 1048.61L1069.27 1023.61L1069.27 973.61zM1069.27 1323.61L1112.57 1348.61L1112.57 1398.61L1069.27 1423.61L1025.97 1398.61L1025.97 1348.61zM1112.57 1398.61L1155.88 1423.61L1155.88 1473.61L1112.57 1498.61L1069.27 1473.61L1069.27 1423.61zM1069.27 1473.61L1112.57 1498.61L1112.57 1548.61L1069.27 1573.61L1025.97 1548.61L1025.97 1498.61zM1112.57 1848.61L1155.88 1873.61L1155.88 1923.61L1112.57 1948.61L1069.27 1923.61L1069.27 1873.61zM1069.27 1923.61L1112.57 1948.61L1112.57 1998.61L1069.27 2023.61L1025.97 1998.61L1025.97 1948.61zM1199.18 48.61L1242.48 73.61L1242.48 123.61L1199.18 148.61L1155.88 123.61L1155.88 73.61zM1155.88 123.61L1199.18 148.61L1199.18 198.61L1155.88 223.61L1112.57 198.61L1112.57 148.61zM1199.18 198.61L1242.48 223.61L1242.48 273.61L1199.18 298.61L1155.88 273.61L1155.88 223.61zM1155.88 273.61L1199.18 298.61L1199.18 348.61L1155.88 373.61L1112.57 348.61L1112.57 298.61zM1199.18 348.61L1242.48 373.61L1242.48 423.61L1199.18 448.61L1155.88 423.61L1155.88 373.61zM1199.18 498.61L1242.48 523.61L1242.48 573.61L1199.18 598.61L1155.88 573.61L1155.88 523.61zM1155.88 573.61L1199.18 598.61L1199.18 648.61L1155.88 673.61L1112.57 648.61L1112.57 598.61zM1199.18 648.61L1242.48 673.61L1242.48 723.61L1199.18 748.61L1155.88 723.61L1155.88 673.61zM1155.88 873.61L1199.18 898.61L1199.18 948.61L1155.88 973.61L1112.57 948.61L1112.57 898.61zM1155.88 1173.61L1199.18 1198.61L1199.18 1248.61L1155.88 1273.61L1112.57 1248.61L1112.57 1198.61zM1155.88 1323.61L1199.18 1348.61L1199.18 1398.61L1155.88 1423.61L1112.57 1398.61L1112.57 1348.61zM1155.88 1473.61L1199.18 1498.61L1199.18 1548.61L1155.88 1573.61L1112.57 1548.61L1112.57 1498.61zM1199.18 1548.61L1242.48 1573.61L1242.48 1623.61L1199.18 1648.61L1155.88 1623.61L1155.88 1573.61zM1155.88 1623.61L1199.18 1648.61L1199.18 1698.61L1155.88 1723.61L1112.57 1698.61L1112.57 1648.61zM1199.18 1698.61L1242.48 1723.61L1242.48 1773.61L1199.18 1798.61L1155.88 1773.61L1155.88 1723.61zM1155.88 1773.61L1199.18 1798.61L1199.18 1848.61L1155.88 1873.61L1112.57 1848.61L1112.57 1798.61zM1155.88 1923.61L1199.18 1948.61L1199.18 1998.61L1155.88 2023.61L1112.57 1998.61L1112.57 1948.61zM1242.48 -26.39L1285.78 -1.39L1285.78 48.61L1242.48 73.61L1199.18 48.61L1199.18 -1.39zM1285.78 48.61L1329.09 73.61L1329.09 123.61L1285.78 148.61L1242.48 123.61L1242.48 73.61zM1242.48 273.61L1285.78 298.61L1285.78 348.61L1242.48 373.61L1199.18 348.61L1199.18 298.61zM1285.78 498.61L1329.09 523.61L1329.09 573.61L1285.78 598.61L1242.48 573.61L1242.48 523.61zM1242.48 873.61L1285.78 898.61L1285.78 948.61L1242.48 973.61L1199.18 948.61L1199.18 898.61zM1285.78 948.61L1329.09 973.61L1329.09 1023.61L1285.78 1048.61L1242.48 1023.61L1242.48 973.61zM1285.78 1098.61L1329.09 1123.61L1329.09 1173.61L1285.78 1198.61L1242.48 1173.61L1242.48 1123.61zM1242.48 1173.61L1285.78 1198.61L1285.78 1248.61L1242.48 1273.61L1199.18 1248.61L1199.18 1198.61zM1242.48 1473.61L1285.78 1498.61L1285.78 1548.61L1242.48 1573.61L1199.18 1548.61L1199.18 1498.61zM1285.78 1848.61L1329.09 1873.61L1329.09 1923.61L1285.78 1948.61L1242.48 1923.61L1242.48 1873.61zM1372.39 348.61L1415.69 373.61L1415.69 423.61L1372.39 448.61L1329.09 423.61L1329.09 373.61zM1329.09 573.61L1372.39 598.61L1372.39 648.61L1329.09 673.61L1285.78 648.61L1285.78 598.61zM1329.09 873.61L1372.39 898.61L1372.39 948.61L1329.09 973.61L1285.78 948.61L1285.78 898.61zM1372.39 948.61L1415.69 973.61L1415.69 1023.61L1372.39 1048.61L1329.09 1023.61L1329.09 973.61zM1329.09 1173.61L1372.39 1198.61L1372.39 1248.61L1329.09 1273.61L1285.78 1248.61L1285.78 1198.61zM1372.39 1248.61L1415.69 1273.61L1415.69 1323.61L1372.39 1348.61L1329.09 1323.61L1329.09 1273.61zM1329.09 1323.61L1372.39 1348.61L1372.39 1398.61L1329.09 1423.61L1285.78 1398.61L1285.78 1348.61zM1329.09 1623.61L1372.39 1648.61L1372.39 1698.61L1329.09 1723.61L1285.78 1698.61L1285.78 1648.61zM1329.09 1773.61L1372.39 1798.61L1372.39 1848.61L1329.09 1873.61L1285.78 1848.61L1285.78 1798.61zM1372.39 1848.61L1415.69 1873.61L1415.69 1923.61L1372.39 1948.61L1329.09 1923.61L1329.09 1873.61zM1329.09 1923.61L1372.39 1948.61L1372.39 1998.61L1329.09 2023.61L1285.78 1998.61L1285.78 1948.61zM1415.69 -26.39L1458.99 -1.39L1458.99 48.61L1415.69 73.61L1372.39 48.61L1372.39 -1.39zM1458.99 198.61L1502.3 223.61L1502.3 273.61L1458.99 298.61L1415.69 273.61L1415.69 223.61zM1458.99 348.61L1502.3 373.61L1502.3 423.61L1458.99 448.61L1415.69 423.61L1415.69 373.61zM1415.69 573.61L1458.99 598.61L1458.99 648.61L1415.69 673.61L1372.39 648.61L1372.39 598.61zM1458.99 648.61L1502.3 673.61L1502.3 723.61L1458.99 748.61L1415.69 723.61L1415.69 673.61zM1415.69 873.61L1458.99 898.61L1458.99 948.61L1415.69 973.61L1372.39 948.61L1372.39 898.61zM1458.99 948.61L1502.3 973.61L1502.3 1023.61L1458.99 1048.61L1415.69 1023.61L1415.69 973.61zM1415.69 1023.61L1458.99 1048.61L1458.99 1098.61L1415.69 1123.61L1372.39 1098.61L1372.39 1048.61zM1458.99 1098.61L1502.3 1123.61L1502.3 1173.61L1458.99 1198.61L1415.69 1173.61L1415.69 1123.61zM1458.99 1248.61L1502.3 1273.61L1502.3 1323.61L1458.99 1348.61L1415.69 1323.61L1415.69 1273.61zM1415.69 1773.61L1458.99 1798.61L1458.99 1848.61L1415.69 1873.61L1372.39 1848.61L1372.39 1798.61zM1458.99 1998.61L1502.3 2023.61L1502.3 2073.61L1458.99 2098.61L1415.69 2073.61L1415.69 2023.61zM1502.3 -26.39L1545.6 -1.39L1545.6 48.61L1502.3 73.61L1458.99 48.61L1458.99 -1.39zM1545.6 198.61L1588.9 223.61L1588.9 273.61L1545.6 298.61L1502.3 273.61L1502.3 223.61zM1502.3 273.61L1545.6 298.61L1545.6 348.61L1502.3 373.61L1458.99 348.61L1458.99 298.61zM1545.6 648.61L1588.9 673.61L1588.9 723.61L1545.6 748.61L1502.3 723.61L1502.3 673.61zM1545.6 798.61L1588.9 823.61L1588.9 873.61L1545.6 898.61L1502.3 873.61L1502.3 823.61zM1502.3 1023.61L1545.6 1048.61L1545.6 1098.61L1502.3 1123.61L1458.99 1098.61L1458.99 1048.61zM1545.6 1098.61L1588.9 1123.61L1588.9 1173.61L1545.6 1198.61L1502.3 1173.61L1502.3 1123.61zM1502.3 1173.61L1545.6 1198.61L1545.6 1248.61L1502.3 1273.61L1458.99 1248.61L1458.99 1198.61zM1545.6 1248.61L1588.9 1273.61L1588.9 1323.61L1545.6 1348.61L1502.3 1323.61L1502.3 1273.61zM1545.6 1398.61L1588.9 1423.61L1588.9 1473.61L1545.6 1498.61L1502.3 1473.61L1502.3 1423.61zM1545.6 1548.61L1588.9 1573.61L1588.9 1623.61L1545.6 1648.61L1502.3 1623.61L1502.3 1573.61zM1502.3 1623.61L1545.6 1648.61L1545.6 1698.61L1502.3 1723.61L1458.99 1698.61L1458.99 1648.61zM1545.6 1698.61L1588.9 1723.61L1588.9 1773.61L1545.6 1798.61L1502.3 1773.61L1502.3 1723.61zM1502.3 1923.61L1545.6 1948.61L1545.6 1998.61L1502.3 2023.61L1458.99 1998.61L1458.99 1948.61zM1632.2 48.61L1675.51 73.61L1675.51 123.61L1632.2 148.61L1588.9 123.61L1588.9 73.61zM1588.9 123.61L1632.2 148.61L1632.2 198.61L1588.9 223.61L1545.6 198.61L1545.6 148.61zM1588.9 273.61L1632.2 298.61L1632.2 348.61L1588.9 373.61L1545.6 348.61L1545.6 298.61zM1632.2 498.61L1675.51 523.61L1675.51 573.61L1632.2 598.61L1588.9 573.61L1588.9 523.61zM1588.9 573.61L1632.2 598.61L1632.2 648.61L1588.9 673.61L1545.6 648.61L1545.6 598.61zM1632.2 648.61L1675.51 673.61L1675.51 723.61L1632.2 748.61L1588.9 723.61L1588.9 673.61zM1632.2 798.61L1675.51 823.61L1675.51 873.61L1632.2 898.61L1588.9 873.61L1588.9 823.61zM1588.9 873.61L1632.2 898.61L1632.2 948.61L1588.9 973.61L1545.6 948.61L1545.6 898.61zM1588.9 1023.61L1632.2 1048.61L1632.2 1098.61L1588.9 1123.61L1545.6 1098.61L1545.6 1048.61zM1632.2 1248.61L1675.51 1273.61L1675.51 1323.61L1632.2 1348.61L1588.9 1323.61L1588.9 1273.61zM1632.2 1698.61L1675.51 1723.61L1675.51 1773.61L1632.2 1798.61L1588.9 1773.61L1588.9 1723.61zM1632.2 1848.61L1675.51 1873.61L1675.51 1923.61L1632.2 1948.61L1588.9 1923.61L1588.9 1873.61zM1588.9 1923.61L1632.2 1948.61L1632.2 1998.61L1588.9 2023.61L1545.6 1998.61L1545.6 1948.61zM1718.81 48.61L1762.11 73.61L1762.11 123.61L1718.81 148.61L1675.51 123.61L1675.51 73.61zM1718.81 198.61L1762.11 223.61L1762.11 273.61L1718.81 298.61L1675.51 273.61L1675.51 223.61zM1675.51 423.61L1718.81 448.61L1718.81 498.61L1675.51 523.61L1632.2 498.61L1632.2 448.61zM1718.81 498.61L1762.11 523.61L1762.11 573.61L1718.81 598.61L1675.51 573.61L1675.51 523.61zM1675.51 723.61L1718.81 748.61L1718.81 798.61L1675.51 823.61L1632.2 798.61L1632.2 748.61zM1718.81 798.61L1762.11 823.61L1762.11 873.61L1718.81 898.61L1675.51 873.61L1675.51 823.61zM1718.81 948.61L1762.11 973.61L1762.11 1023.61L1718.81 1048.61L1675.51 1023.61L1675.51 973.61zM1675.51 1173.61L1718.81 1198.61L1718.81 1248.61L1675.51 1273.61L1632.2 1248.61L1632.2 1198.61zM1718.81 1248.61L1762.11 1273.61L1762.11 1323.61L1718.81 1348.61L1675.51 1323.61L1675.51 1273.61zM1675.51 1323.61L1718.81 1348.61L1718.81 1398.61L1675.51 1423.61L1632.2 1398.61L1632.2 1348.61zM1718.81 1398.61L1762.11 1423.61L1762.11 1473.61L1718.81 1498.61L1675.51 1473.61L1675.51 1423.61zM1675.51 1473.61L1718.81 1498.61L1718.81 1548.61L1675.51 1573.61L1632.2 1548.61L1632.2 1498.61zM1718.81 1548.61L1762.11 1573.61L1762.11 1623.61L1718.81 1648.61L1675.51 1623.61L1675.51 1573.61zM1718.81 1698.61L1762.11 1723.61L1762.11 1773.61L1718.81 1798.61L1675.51 1773.61L1675.51 1723.61zM1675.51 1773.61L1718.81 1798.61L1718.81 1848.61L1675.51 1873.61L1632.2 1848.61L1632.2 1798.61zM1718.81 1848.61L1762.11 1873.61L1762.11 1923.61L1718.81 1948.61L1675.51 1923.61L1675.51 1873.61zM1718.81 1998.61L1762.11 2023.61L1762.11 2073.61L1718.81 2098.61L1675.51 2073.61L1675.51 2023.61zM1762.11 -26.39L1805.41 -1.39L1805.41 48.61L1762.11 73.61L1718.81 48.61L1718.81 -1.39zM1805.41 48.61L1848.72 73.61L1848.72 123.61L1805.41 148.61L1762.11 123.61L1762.11 73.61zM1762.11 123.61L1805.41 148.61L1805.41 198.61L1762.11 223.61L1718.81 198.61L1718.81 148.61zM1805.41 348.61L1848.72 373.61L1848.72 423.61L1805.41 448.61L1762.11 423.61L1762.11 373.61zM1762.11 423.61L1805.41 448.61L1805.41 498.61L1762.11 523.61L1718.81 498.61L1718.81 448.61zM1805.41 648.61L1848.72 673.61L1848.72 723.61L1805.41 748.61L1762.11 723.61L1762.11 673.61zM1805.41 798.61L1848.72 823.61L1848.72 873.61L1805.41 898.61L1762.11 873.61L1762.11 823.61zM1762.11 873.61L1805.41 898.61L1805.41 948.61L1762.11 973.61L1718.81 948.61L1718.81 898.61zM1805.41 948.61L1848.72 973.61L1848.72 1023.61L1805.41 1048.61L1762.11 1023.61L1762.11 973.61zM1805.41 1098.61L1848.72 1123.61L1848.72 1173.61L1805.41 1198.61L1762.11 1173.61L1762.11 1123.61zM1762.11 1173.61L1805.41 1198.61L1805.41 1248.61L1762.11 1273.61L1718.81 1248.61L1718.81 1198.61zM1805.41 1248.61L1848.72 1273.61L1848.72 1323.61L1805.41 1348.61L1762.11 1323.61L1762.11 1273.61zM1805.41 1398.61L1848.72 1423.61L1848.72 1473.61L1805.41 1498.61L1762.11 1473.61L1762.11 1423.61zM1805.41 1548.61L1848.72 1573.61L1848.72 1623.61L1805.41 1648.61L1762.11 1623.61L1762.11 1573.61zM1762.11 1623.61L1805.41 1648.61L1805.41 1698.61L1762.11 1723.61L1718.81 1698.61L1718.81 1648.61zM1805.41 1698.61L1848.72 1723.61L1848.72 1773.61L1805.41 1798.61L1762.11 1773.61L1762.11 1723.61zM1762.11 1773.61L1805.41 1798.61L1805.41 1848.61L1762.11 1873.61L1718.81 1848.61L1718.81 1798.61zM1762.11 1923.61L1805.41 1948.61L1805.41 1998.61L1762.11 2023.61L1718.81 1998.61L1718.81 1948.61zM1848.72 -26.39L1892.02 -1.39L1892.02 48.61L1848.72 73.61L1805.41 48.61L1805.41 -1.39zM1892.02 48.61L1935.32 73.61L1935.32 123.61L1892.02 148.61L1848.72 123.61L1848.72 73.61zM1892.02 198.61L1935.32 223.61L1935.32 273.61L1892.02 298.61L1848.72 273.61L1848.72 223.61zM1848.72 273.61L1892.02 298.61L1892.02 348.61L1848.72 373.61L1805.41 348.61L1805.41 298.61zM1848.72 423.61L1892.02 448.61L1892.02 498.61L1848.72 523.61L1805.41 498.61L1805.41 448.61zM1892.02 498.61L1935.32 523.61L1935.32 573.61L1892.02 598.61L1848.72 573.61L1848.72 523.61zM1848.72 573.61L1892.02 598.61L1892.02 648.61L1848.72 673.61L1805.41 648.61L1805.41 598.61zM1848.72 723.61L1892.02 748.61L1892.02 798.61L1848.72 823.61L1805.41 798.61L1805.41 748.61zM1892.02 798.61L1935.32 823.61L1935.32 873.61L1892.02 898.61L1848.72 873.61L1848.72 823.61zM1848.72 873.61L1892.02 898.61L1892.02 948.61L1848.72 973.61L1805.41 948.61L1805.41 898.61zM1892.02 948.61L1935.32 973.61L1935.32 1023.61L1892.02 1048.61L1848.72 1023.61L1848.72 973.61zM1848.72 1023.61L1892.02 1048.61L1892.02 1098.61L1848.72 1123.61L1805.41 1098.61L1805.41 1048.61zM1892.02 1098.61L1935.32 1123.61L1935.32 1173.61L1892.02 1198.61L1848.72 1173.61L1848.72 1123.61zM1848.72 1173.61L1892.02 1198.61L1892.02 1248.61L1848.72 1273.61L1805.41 1248.61L1805.41 1198.61zM1892.02 1398.61L1935.32 1423.61L1935.32 1473.61L1892.02 1498.61L1848.72 1473.61L1848.72 1423.61zM1892.02 1548.61L1935.32 1573.61L1935.32 1623.61L1892.02 1648.61L1848.72 1623.61L1848.72 1573.61zM1848.72 1623.61L1892.02 1648.61L1892.02 1698.61L1848.72 1723.61L1805.41 1698.61L1805.41 1648.61zM1848.72 1773.61L1892.02 1798.61L1892.02 1848.61L1848.72 1873.61L1805.41 1848.61L1805.41 1798.61zM1892.02 1848.61L1935.32 1873.61L1935.32 1923.61L1892.02 1948.61L1848.72 1923.61L1848.72 1873.61zM1848.72 1923.61L1892.02 1948.61L1892.02 1998.61L1848.72 2023.61L1805.41 1998.61L1805.41 1948.61zM1978.62 48.61L2021.93 73.61L2021.93 123.61L1978.62 148.61L1935.32 123.61L1935.32 73.61zM1935.32 123.61L1978.62 148.61L1978.62 198.61L1935.32 223.61L1892.02 198.61L1892.02 148.61zM1978.62 198.61L2021.93 223.61L2021.93 273.61L1978.62 298.61L1935.32 273.61L1935.32 223.61zM1935.32 273.61L1978.62 298.61L1978.62 348.61L1935.32 373.61L1892.02 348.61L1892.02 298.61zM1978.62 348.61L2021.93 373.61L2021.93 423.61L1978.62 448.61L1935.32 423.61L1935.32 373.61zM1935.32 573.61L1978.62 598.61L1978.62 648.61L1935.32 673.61L1892.02 648.61L1892.02 598.61zM1978.62 648.61L2021.93 673.61L2021.93 723.61L1978.62 748.61L1935.32 723.61L1935.32 673.61zM1935.32 723.61L1978.62 748.61L1978.62 798.61L1935.32 823.61L1892.02 798.61L1892.02 748.61zM1935.32 1323.61L1978.62 1348.61L1978.62 1398.61L1935.32 1423.61L1892.02 1398.61L1892.02 1348.61zM1935.32 1473.61L1978.62 1498.61L1978.62 1548.61L1935.32 1573.61L1892.02 1548.61L1892.02 1498.61zM1978.62 1698.61L2021.93 1723.61L2021.93 1773.61L1978.62 1798.61L1935.32 1773.61L1935.32 1723.61zM1935.32 1773.61L1978.62 1798.61L1978.62 1848.61L1935.32 1873.61L1892.02 1848.61L1892.02 1798.61zM1978.62 1848.61L2021.93 1873.61L2021.93 1923.61L1978.62 1948.61L1935.32 1923.61L1935.32 1873.61zM1935.32 1923.61L1978.62 1948.61L1978.62 1998.61L1935.32 2023.61L1892.02 1998.61L1892.02 1948.61zM1978.62 1998.61L2021.93 2023.61L2021.93 2073.61L1978.62 2098.61L1935.32 2073.61L1935.32 2023.61zM2065.23 48.61L2108.53 73.61L2108.53 123.61L2065.23 148.61L2021.93 123.61L2021.93 73.61zM2065.23 348.61L2108.53 373.61L2108.53 423.61L2065.23 448.61L2021.93 423.61L2021.93 373.61zM2021.93 423.61L2065.23 448.61L2065.23 498.61L2021.93 523.61L1978.62 498.61L1978.62 448.61zM2065.23 498.61L2108.53 523.61L2108.53 573.61L2065.23 598.61L2021.93 573.61L2021.93 523.61zM2021.93 573.61L2065.23 598.61L2065.23 648.61L2021.93 673.61L1978.62 648.61L1978.62 598.61zM2021.93 723.61L2065.23 748.61L2065.23 798.61L2021.93 823.61L1978.62 798.61L1978.62 748.61zM2065.23 798.61L2108.53 823.61L2108.53 873.61L2065.23 898.61L2021.93 873.61L2021.93 823.61zM2065.23 948.61L2108.53 973.61L2108.53 1023.61L2065.23 1048.61L2021.93 1023.61L2021.93 973.61zM2021.93 1023.61L2065.23 1048.61L2065.23 1098.61L2021.93 1123.61L1978.62 1098.61L1978.62 1048.61zM2065.23 1098.61L2108.53 1123.61L2108.53 1173.61L2065.23 1198.61L2021.93 1173.61L2021.93 1123.61zM2065.23 1398.61L2108.53 1423.61L2108.53 1473.61L2065.23 1498.61L2021.93 1473.61L2021.93 1423.61zM2021.93 1473.61L2065.23 1498.61L2065.23 1548.61L2021.93 1573.61L1978.62 1548.61L1978.62 1498.61zM2021.93 1773.61L2065.23 1798.61L2065.23 1848.61L2021.93 1873.61L1978.62 1848.61L1978.62 1798.61zM2065.23 1848.61L2108.53 1873.61L2108.53 1923.61L2065.23 1948.61L2021.93 1923.61L2021.93 1873.61zM2021.93 1923.61L2065.23 1948.61L2065.23 1998.61L2021.93 2023.61L1978.62 1998.61L1978.62 1948.61z" stroke="url(#SvgjsLinearGradient1596)" stroke-width="2"></path></g><defs><mask id="SvgjsMask1594"><rect width="2000" height="2000" fill="#ffffff"></rect></mask><linearGradient x1="0" y1="0" x2="2000" y2="2000" gradientUnits="userSpaceOnUse" id="SvgjsLinearGradient1595"><stop stop-color="rgba(158, 0, 129, 1)" offset="0"></stop><stop stop-color="#03305d" offset="1"></stop></linearGradient><linearGradient x1="0" y1="0" x2="2000" y2="2000" gradientUnits="userSpaceOnUse" id="SvgjsLinearGradient1596"><stop stop-color="#0e2a47" offset="0"></stop><stop stop-color="rgba(0, 93, 213, 1)" offset="1"></stop></linearGradient></defs></svg>