<svg xmlns="http://www.w3.org/2000/svg" version="1.1" xmlns:xlink="http://www.w3.org/1999/xlink" xmlns:svgjs="http://svgjs.com/svgjs" width="1440" height="560" preserveAspectRatio="none" viewBox="0 0 1440 560"><g mask="url(&quot;#SvgjsMask1002&quot;)" fill="none"><rect width="1440" height="560" x="0" y="0" fill="#0e2a47"></rect><path d="M-60.91 369.68L-60.91 369.68" stroke="rgba(55, 0, 91, 1)" stroke-width="1.5"></path><path d="M-60.91 369.68L-109.78 502.2" stroke="rgba(55, 0, 91, 1)" stroke-width="1.5"></path><path d="M-109.78 502.2L-109.78 502.2" stroke="rgba(55, 0, 91, 1)" stroke-width="1.5"></path><path d="M-109.78 502.2L-81.29 662.07" stroke="rgba(55, 0, 91, 1)" stroke-width="1.5"></path><path d="M-109.78 502.2L42.31 638.58" stroke="rgba(55, 0, 91, 1)" stroke-width="1.5"></path><path d="M-81.29 662.07L-81.29 662.07" stroke="rgba(55, 0, 91, 1)" stroke-width="1.5"></path><path d="M-81.29 662.07L42.31 638.58" stroke="rgba(55, 0, 91, 1)" stroke-width="1.5"></path><path d="M96.05 353.38L96.05 353.38" stroke="rgba(55, 0, 91, 1)" stroke-width="1.5"></path><path d="M96.05 353.38L-60.91 369.68" stroke="rgba(55, 0, 91, 1)" stroke-width="1.5"></path><path d="M96.05 353.38L261.15 365.95" stroke="rgba(55, 0, 91, 1)" stroke-width="1.5"></path><path d="M96.05 353.38L230.1 526.37" stroke="rgba(55, 0, 91, 1)" stroke-width="1.5"></path><path d="M96.05 353.38L-109.78 502.2" stroke="rgba(55, 0, 91, 1)" stroke-width="1.5"></path><path d="M96.05 353.38L378.8 360.83" stroke="rgba(55, 0, 91, 1)" stroke-width="1.5"></path><path d="M42.31 638.58L42.31 638.58" stroke="rgba(55, 0, 91, 1)" stroke-width="1.5"></path><path d="M42.31 638.58L230.1 526.37" stroke="rgba(55, 0, 91, 1)" stroke-width="1.5"></path><path d="M42.31 638.58L-60.91 369.68" stroke="rgba(55, 0, 91, 1)" stroke-width="1.5"></path><path d="M42.31 638.58L96.05 353.38" stroke="rgba(55, 0, 91, 1)" stroke-width="1.5"></path><path d="M261.15 365.95L261.15 365.95" stroke="rgba(55, 0, 91, 1)" stroke-width="1.5"></path><path d="M261.15 365.95L378.8 360.83" stroke="rgba(55, 0, 91, 1)" stroke-width="1.5"></path><path d="M261.15 365.95L230.1 526.37" stroke="rgba(55, 0, 91, 1)" stroke-width="1.5"></path><path d="M261.15 365.95L362.14 507.86" stroke="rgba(55, 0, 91, 1)" stroke-width="1.5"></path><path d="M261.15 365.95L544.3 339.76" stroke="rgba(55, 0, 91, 1)" stroke-width="1.5"></path><path d="M261.15 365.95L507.09 525.92" stroke="rgba(55, 0, 91, 1)" stroke-width="1.5"></path><path d="M230.1 526.37L230.1 526.37" stroke="rgba(55, 0, 91, 1)" stroke-width="1.5"></path><path d="M230.1 526.37L362.14 507.86" stroke="rgba(55, 0, 91, 1)" stroke-width="1.5"></path><path d="M378.8 360.83L378.8 360.83" stroke="rgba(55, 0, 91, 1)" stroke-width="1.5"></path><path d="M378.8 360.83L362.14 507.86" stroke="rgba(55, 0, 91, 1)" stroke-width="1.5"></path><path d="M378.8 360.83L544.3 339.76" stroke="rgba(55, 0, 91, 1)" stroke-width="1.5"></path><path d="M378.8 360.83L507.09 525.92" stroke="rgba(55, 0, 91, 1)" stroke-width="1.5"></path><path d="M378.8 360.83L230.1 526.37" stroke="rgba(55, 0, 91, 1)" stroke-width="1.5"></path><path d="M362.14 507.86L362.14 507.86" stroke="rgba(55, 0, 91, 1)" stroke-width="1.5"></path><path d="M362.14 507.86L507.09 525.92" stroke="rgba(55, 0, 91, 1)" stroke-width="1.5"></path><path d="M544.3 339.76L544.3 339.76" stroke="rgba(55, 0, 91, 1)" stroke-width="1.5"></path><path d="M544.3 339.76L655.84 257.35" stroke="rgba(55, 0, 91, 1)" stroke-width="1.5"></path><path d="M544.3 339.76L690.87 387.27" stroke="rgba(55, 0, 91, 1)" stroke-width="1.5"></path><path d="M507.09 525.92L507.09 525.92" stroke="rgba(55, 0, 91, 1)" stroke-width="1.5"></path><path d="M507.09 525.92L487.59 695.92" stroke="rgba(55, 0, 91, 1)" stroke-width="1.5"></path><path d="M507.09 525.92L688.96 495.04" stroke="rgba(55, 0, 91, 1)" stroke-width="1.5"></path><path d="M507.09 525.92L544.3 339.76" stroke="rgba(55, 0, 91, 1)" stroke-width="1.5"></path><path d="M487.59 695.92L487.59 695.92" stroke="rgba(55, 0, 91, 1)" stroke-width="1.5"></path><path d="M487.59 695.92L657.94 678.35" stroke="rgba(55, 0, 91, 1)" stroke-width="1.5"></path><path d="M487.59 695.92L362.14 507.86" stroke="rgba(55, 0, 91, 1)" stroke-width="1.5"></path><path d="M487.59 695.92L688.96 495.04" stroke="rgba(55, 0, 91, 1)" stroke-width="1.5"></path><path d="M487.59 695.92L230.1 526.37" stroke="rgba(55, 0, 91, 1)" stroke-width="1.5"></path><path d="M655.84 257.35L655.84 257.35" stroke="rgba(55, 0, 91, 1)" stroke-width="1.5"></path><path d="M655.84 257.35L690.87 387.27" stroke="rgba(55, 0, 91, 1)" stroke-width="1.5"></path><path d="M690.87 387.27L690.87 387.27" stroke="rgba(55, 0, 91, 1)" stroke-width="1.5"></path><path d="M690.87 387.27L688.96 495.04" stroke="rgba(55, 0, 91, 1)" stroke-width="1.5"></path><path d="M690.87 387.27L847.19 367.2" stroke="rgba(55, 0, 91, 1)" stroke-width="1.5"></path><path d="M688.96 495.04L688.96 495.04" stroke="rgba(55, 0, 91, 1)" stroke-width="1.5"></path><path d="M688.96 495.04L855.46 522.94" stroke="rgba(55, 0, 91, 1)" stroke-width="1.5"></path><path d="M688.96 495.04L657.94 678.35" stroke="rgba(55, 0, 91, 1)" stroke-width="1.5"></path><path d="M657.94 678.35L657.94 678.35" stroke="rgba(55, 0, 91, 1)" stroke-width="1.5"></path><path d="M657.94 678.35L861.11 691.65" stroke="rgba(55, 0, 91, 1)" stroke-width="1.5"></path><path d="M657.94 678.35L507.09 525.92" stroke="rgba(55, 0, 91, 1)" stroke-width="1.5"></path><path d="M657.94 678.35L855.46 522.94" stroke="rgba(55, 0, 91, 1)" stroke-width="1.5"></path><path d="M791.35 192.53L791.35 192.53" stroke="rgba(55, 0, 91, 1)" stroke-width="1.5"></path><path d="M791.35 192.53L655.84 257.35" stroke="rgba(55, 0, 91, 1)" stroke-width="1.5"></path><path d="M791.35 192.53L847.19 367.2" stroke="rgba(55, 0, 91, 1)" stroke-width="1.5"></path><path d="M847.19 367.2L847.19 367.2" stroke="rgba(55, 0, 91, 1)" stroke-width="1.5"></path><path d="M847.19 367.2L855.46 522.94" stroke="rgba(55, 0, 91, 1)" stroke-width="1.5"></path><path d="M855.46 522.94L855.46 522.94" stroke="rgba(55, 0, 91, 1)" stroke-width="1.5"></path><path d="M855.46 522.94L956.46 514.96" stroke="rgba(55, 0, 91, 1)" stroke-width="1.5"></path><path d="M855.46 522.94L954.43 640.29" stroke="rgba(55, 0, 91, 1)" stroke-width="1.5"></path><path d="M855.46 522.94L861.11 691.65" stroke="rgba(55, 0, 91, 1)" stroke-width="1.5"></path><path d="M855.46 522.94L690.87 387.27" stroke="rgba(55, 0, 91, 1)" stroke-width="1.5"></path><path d="M861.11 691.65L861.11 691.65" stroke="rgba(55, 0, 91, 1)" stroke-width="1.5"></path><path d="M861.11 691.65L954.43 640.29" stroke="rgba(55, 0, 91, 1)" stroke-width="1.5"></path><path d="M861.11 691.65L956.46 514.96" stroke="rgba(55, 0, 91, 1)" stroke-width="1.5"></path><path d="M950.65 -92.35L950.65 -92.35" stroke="rgba(55, 0, 91, 1)" stroke-width="1.5"></path><path d="M950.65 -92.35L1101.37 -60.28" stroke="rgba(55, 0, 91, 1)" stroke-width="1.5"></path><path d="M950.65 -92.35L983.66 63.66" stroke="rgba(55, 0, 91, 1)" stroke-width="1.5"></path><path d="M950.65 -92.35L1136.87 63.27" stroke="rgba(55, 0, 91, 1)" stroke-width="1.5"></path><path d="M950.65 -92.35L1273.57 -71.29" stroke="rgba(55, 0, 91, 1)" stroke-width="1.5"></path><path d="M983.66 63.66L983.66 63.66" stroke="rgba(55, 0, 91, 1)" stroke-width="1.5"></path><path d="M983.66 63.66L1136.87 63.27" stroke="rgba(55, 0, 91, 1)" stroke-width="1.5"></path><path d="M965.8 258.32L965.8 258.32" stroke="rgba(55, 0, 91, 1)" stroke-width="1.5"></path><path d="M965.8 258.32L1012.31 365.33" stroke="rgba(55, 0, 91, 1)" stroke-width="1.5"></path><path d="M965.8 258.32L1105.77 232.54" stroke="rgba(55, 0, 91, 1)" stroke-width="1.5"></path><path d="M1012.31 365.33L1012.31 365.33" stroke="rgba(55, 0, 91, 1)" stroke-width="1.5"></path><path d="M1012.31 365.33L1088.58 350.37" stroke="rgba(55, 0, 91, 1)" stroke-width="1.5"></path><path d="M956.46 514.96L956.46 514.96" stroke="rgba(55, 0, 91, 1)" stroke-width="1.5"></path><path d="M956.46 514.96L954.43 640.29" stroke="rgba(55, 0, 91, 1)" stroke-width="1.5"></path><path d="M956.46 514.96L1110.85 541.08" stroke="rgba(55, 0, 91, 1)" stroke-width="1.5"></path><path d="M956.46 514.96L1012.31 365.33" stroke="rgba(55, 0, 91, 1)" stroke-width="1.5"></path><path d="M956.46 514.96L847.19 367.2" stroke="rgba(55, 0, 91, 1)" stroke-width="1.5"></path><path d="M954.43 640.29L954.43 640.29" stroke="rgba(55, 0, 91, 1)" stroke-width="1.5"></path><path d="M1101.37 -60.28L1101.37 -60.28" stroke="rgba(55, 0, 91, 1)" stroke-width="1.5"></path><path d="M1101.37 -60.28L1136.87 63.27" stroke="rgba(55, 0, 91, 1)" stroke-width="1.5"></path><path d="M1101.37 -60.28L983.66 63.66" stroke="rgba(55, 0, 91, 1)" stroke-width="1.5"></path><path d="M1136.87 63.27L1136.87 63.27" stroke="rgba(55, 0, 91, 1)" stroke-width="1.5"></path><path d="M1105.77 232.54L1105.77 232.54" stroke="rgba(55, 0, 91, 1)" stroke-width="1.5"></path><path d="M1105.77 232.54L1088.58 350.37" stroke="rgba(55, 0, 91, 1)" stroke-width="1.5"></path><path d="M1105.77 232.54L1259.93 259.63" stroke="rgba(55, 0, 91, 1)" stroke-width="1.5"></path><path d="M1105.77 232.54L1012.31 365.33" stroke="rgba(55, 0, 91, 1)" stroke-width="1.5"></path><path d="M1105.77 232.54L1136.87 63.27" stroke="rgba(55, 0, 91, 1)" stroke-width="1.5"></path><path d="M1105.77 232.54L983.66 63.66" stroke="rgba(55, 0, 91, 1)" stroke-width="1.5"></path><path d="M1088.58 350.37L1088.58 350.37" stroke="rgba(55, 0, 91, 1)" stroke-width="1.5"></path><path d="M1088.58 350.37L965.8 258.32" stroke="rgba(55, 0, 91, 1)" stroke-width="1.5"></path><path d="M1088.58 350.37L1110.85 541.08" stroke="rgba(55, 0, 91, 1)" stroke-width="1.5"></path><path d="M1088.58 350.37L1259.93 259.63" stroke="rgba(55, 0, 91, 1)" stroke-width="1.5"></path><path d="M1110.85 541.08L1110.85 541.08" stroke="rgba(55, 0, 91, 1)" stroke-width="1.5"></path><path d="M1110.85 541.08L1107.01 663" stroke="rgba(55, 0, 91, 1)" stroke-width="1.5"></path><path d="M1110.85 541.08L1266.59 533.35" stroke="rgba(55, 0, 91, 1)" stroke-width="1.5"></path><path d="M1107.01 663L1107.01 663" stroke="rgba(55, 0, 91, 1)" stroke-width="1.5"></path><path d="M1107.01 663L954.43 640.29" stroke="rgba(55, 0, 91, 1)" stroke-width="1.5"></path><path d="M1107.01 663L1262.73 686.15" stroke="rgba(55, 0, 91, 1)" stroke-width="1.5"></path><path d="M1273.57 -71.29L1273.57 -71.29" stroke="rgba(55, 0, 91, 1)" stroke-width="1.5"></path><path d="M1273.57 -71.29L1302.08 56.93" stroke="rgba(55, 0, 91, 1)" stroke-width="1.5"></path><path d="M1273.57 -71.29L1101.37 -60.28" stroke="rgba(55, 0, 91, 1)" stroke-width="1.5"></path><path d="M1273.57 -71.29L1459.59 -54.15" stroke="rgba(55, 0, 91, 1)" stroke-width="1.5"></path><path d="M1273.57 -71.29L1136.87 63.27" stroke="rgba(55, 0, 91, 1)" stroke-width="1.5"></path><path d="M1273.57 -71.29L1442.26 70.58" stroke="rgba(55, 0, 91, 1)" stroke-width="1.5"></path><path d="M1302.08 56.93L1302.08 56.93" stroke="rgba(55, 0, 91, 1)" stroke-width="1.5"></path><path d="M1302.08 56.93L1442.26 70.58" stroke="rgba(55, 0, 91, 1)" stroke-width="1.5"></path><path d="M1259.93 259.63L1259.93 259.63" stroke="rgba(55, 0, 91, 1)" stroke-width="1.5"></path><path d="M1259.93 259.63L1310.44 392.29" stroke="rgba(55, 0, 91, 1)" stroke-width="1.5"></path><path d="M1259.93 259.63L1403.96 202.88" stroke="rgba(55, 0, 91, 1)" stroke-width="1.5"></path><path d="M1259.93 259.63L1428.2 375.99" stroke="rgba(55, 0, 91, 1)" stroke-width="1.5"></path><path d="M1310.44 392.29L1310.44 392.29" stroke="rgba(55, 0, 91, 1)" stroke-width="1.5"></path><path d="M1310.44 392.29L1428.2 375.99" stroke="rgba(55, 0, 91, 1)" stroke-width="1.5"></path><path d="M1310.44 392.29L1266.59 533.35" stroke="rgba(55, 0, 91, 1)" stroke-width="1.5"></path><path d="M1310.44 392.29L1388.32 534.48" stroke="rgba(55, 0, 91, 1)" stroke-width="1.5"></path><path d="M1310.44 392.29L1403.96 202.88" stroke="rgba(55, 0, 91, 1)" stroke-width="1.5"></path><path d="M1266.59 533.35L1266.59 533.35" stroke="rgba(55, 0, 91, 1)" stroke-width="1.5"></path><path d="M1266.59 533.35L1388.32 534.48" stroke="rgba(55, 0, 91, 1)" stroke-width="1.5"></path><path d="M1266.59 533.35L1262.73 686.15" stroke="rgba(55, 0, 91, 1)" stroke-width="1.5"></path><path d="M1266.59 533.35L1421.22 665.46" stroke="rgba(55, 0, 91, 1)" stroke-width="1.5"></path><path d="M1266.59 533.35L1107.01 663" stroke="rgba(55, 0, 91, 1)" stroke-width="1.5"></path><path d="M1262.73 686.15L1262.73 686.15" stroke="rgba(55, 0, 91, 1)" stroke-width="1.5"></path><path d="M1262.73 686.15L1421.22 665.46" stroke="rgba(55, 0, 91, 1)" stroke-width="1.5"></path><path d="M1262.73 686.15L1388.32 534.48" stroke="rgba(55, 0, 91, 1)" stroke-width="1.5"></path><path d="M1262.73 686.15L1110.85 541.08" stroke="rgba(55, 0, 91, 1)" stroke-width="1.5"></path><path d="M1262.73 686.15L1310.44 392.29" stroke="rgba(55, 0, 91, 1)" stroke-width="1.5"></path><path d="M1459.59 -54.15L1459.59 -54.15" stroke="rgba(55, 0, 91, 1)" stroke-width="1.5"></path><path d="M1459.59 -54.15L1547.55 -89" stroke="rgba(55, 0, 91, 1)" stroke-width="1.5"></path><path d="M1459.59 -54.15L1442.26 70.58" stroke="rgba(55, 0, 91, 1)" stroke-width="1.5"></path><path d="M1459.59 -54.15L1583.56 57.12" stroke="rgba(55, 0, 91, 1)" stroke-width="1.5"></path><path d="M1442.26 70.58L1442.26 70.58" stroke="rgba(55, 0, 91, 1)" stroke-width="1.5"></path><path d="M1442.26 70.58L1403.96 202.88" stroke="rgba(55, 0, 91, 1)" stroke-width="1.5"></path><path d="M1403.96 202.88L1403.96 202.88" stroke="rgba(55, 0, 91, 1)" stroke-width="1.5"></path><path d="M1403.96 202.88L1576.43 209.78" stroke="rgba(55, 0, 91, 1)" stroke-width="1.5"></path><path d="M1403.96 202.88L1428.2 375.99" stroke="rgba(55, 0, 91, 1)" stroke-width="1.5"></path><path d="M1403.96 202.88L1302.08 56.93" stroke="rgba(55, 0, 91, 1)" stroke-width="1.5"></path><path d="M1428.2 375.99L1428.2 375.99" stroke="rgba(55, 0, 91, 1)" stroke-width="1.5"></path><path d="M1428.2 375.99L1571.73 403.48" stroke="rgba(55, 0, 91, 1)" stroke-width="1.5"></path><path d="M1428.2 375.99L1388.32 534.48" stroke="rgba(55, 0, 91, 1)" stroke-width="1.5"></path><path d="M1428.2 375.99L1576.43 209.78" stroke="rgba(55, 0, 91, 1)" stroke-width="1.5"></path><path d="M1388.32 534.48L1388.32 534.48" stroke="rgba(55, 0, 91, 1)" stroke-width="1.5"></path><path d="M1388.32 534.48L1421.22 665.46" stroke="rgba(55, 0, 91, 1)" stroke-width="1.5"></path><path d="M1421.22 665.46L1421.22 665.46" stroke="rgba(55, 0, 91, 1)" stroke-width="1.5"></path><path d="M1421.22 665.46L1588.7 648.54" stroke="rgba(55, 0, 91, 1)" stroke-width="1.5"></path><path d="M1421.22 665.46L1602.01 524.54" stroke="rgba(55, 0, 91, 1)" stroke-width="1.5"></path><path d="M1421.22 665.46L1428.2 375.99" stroke="rgba(55, 0, 91, 1)" stroke-width="1.5"></path><path d="M1547.55 -89L1547.55 -89" stroke="rgba(55, 0, 91, 1)" stroke-width="1.5"></path><path d="M1547.55 -89L1583.56 57.12" stroke="rgba(55, 0, 91, 1)" stroke-width="1.5"></path><path d="M1547.55 -89L1442.26 70.58" stroke="rgba(55, 0, 91, 1)" stroke-width="1.5"></path><path d="M1547.55 -89L1273.57 -71.29" stroke="rgba(55, 0, 91, 1)" stroke-width="1.5"></path><path d="M1547.55 -89L1302.08 56.93" stroke="rgba(55, 0, 91, 1)" stroke-width="1.5"></path><path d="M1583.56 57.12L1583.56 57.12" stroke="rgba(55, 0, 91, 1)" stroke-width="1.5"></path><path d="M1583.56 57.12L1442.26 70.58" stroke="rgba(55, 0, 91, 1)" stroke-width="1.5"></path><path d="M1583.56 57.12L1576.43 209.78" stroke="rgba(55, 0, 91, 1)" stroke-width="1.5"></path><path d="M1576.43 209.78L1576.43 209.78" stroke="rgba(55, 0, 91, 1)" stroke-width="1.5"></path><path d="M1571.73 403.48L1571.73 403.48" stroke="rgba(55, 0, 91, 1)" stroke-width="1.5"></path><path d="M1571.73 403.48L1602.01 524.54" stroke="rgba(55, 0, 91, 1)" stroke-width="1.5"></path><path d="M1571.73 403.48L1576.43 209.78" stroke="rgba(55, 0, 91, 1)" stroke-width="1.5"></path><path d="M1571.73 403.48L1388.32 534.48" stroke="rgba(55, 0, 91, 1)" stroke-width="1.5"></path><path d="M1571.73 403.48L1588.7 648.54" stroke="rgba(55, 0, 91, 1)" stroke-width="1.5"></path><path d="M1602.01 524.54L1602.01 524.54" stroke="rgba(55, 0, 91, 1)" stroke-width="1.5"></path><path d="M1602.01 524.54L1588.7 648.54" stroke="rgba(55, 0, 91, 1)" stroke-width="1.5"></path><path d="M1602.01 524.54L1388.32 534.48" stroke="rgba(55, 0, 91, 1)" stroke-width="1.5"></path><path d="M1602.01 524.54L1428.2 375.99" stroke="rgba(55, 0, 91, 1)" stroke-width="1.5"></path><path d="M1588.7 648.54L1588.7 648.54" stroke="rgba(55, 0, 91, 1)" stroke-width="1.5"></path><path d="M1588.7 648.54L1388.32 534.48" stroke="rgba(55, 0, 91, 1)" stroke-width="1.5"></path><path d="M1588.7 648.54L1428.2 375.99" stroke="rgba(55, 0, 91, 1)" stroke-width="1.5"></path><path d="M1588.7 648.54L1262.73 686.15" stroke="rgba(55, 0, 91, 1)" stroke-width="1.5"></path><circle r="5" cx="-60.91" cy="369.68" fill="rgba(55, 0, 91, 1)"></circle><circle r="5" cx="-109.78" cy="502.2" fill="rgba(55, 0, 91, 1)"></circle><circle r="5" cx="-81.29" cy="662.07" fill="rgba(55, 0, 91, 1)"></circle><circle r="5" cx="96.05" cy="353.38" fill="rgba(55, 0, 91, 1)"></circle><circle r="5" cx="42.31" cy="638.58" fill="rgba(55, 0, 91, 1)"></circle><circle r="5" cx="261.15" cy="365.95" fill="rgba(55, 0, 91, 1)"></circle><circle r="5" cx="230.1" cy="526.37" fill="rgba(55, 0, 91, 1)"></circle><circle r="5" cx="378.8" cy="360.83" fill="rgba(55, 0, 91, 1)"></circle><circle r="5" cx="362.14" cy="507.86" fill="rgba(55, 0, 91, 1)"></circle><circle r="5" cx="544.3" cy="339.76" fill="rgba(55, 0, 91, 1)"></circle><circle r="5" cx="507.09" cy="525.92" fill="rgba(55, 0, 91, 1)"></circle><circle r="5" cx="487.59" cy="695.92" fill="rgba(55, 0, 91, 1)"></circle><circle r="5" cx="655.84" cy="257.35" fill="rgba(55, 0, 91, 1)"></circle><circle r="5" cx="690.87" cy="387.27" fill="rgba(55, 0, 91, 1)"></circle><circle r="5" cx="688.96" cy="495.04" fill="rgba(55, 0, 91, 1)"></circle><circle r="5" cx="657.94" cy="678.35" fill="rgba(55, 0, 91, 1)"></circle><circle r="5" cx="791.35" cy="192.53" fill="rgba(55, 0, 91, 1)"></circle><circle r="5" cx="847.19" cy="367.2" fill="rgba(55, 0, 91, 1)"></circle><circle r="5" cx="855.46" cy="522.94" fill="rgba(55, 0, 91, 1)"></circle><circle r="5" cx="861.11" cy="691.65" fill="rgba(55, 0, 91, 1)"></circle><circle r="5" cx="950.65" cy="-92.35" fill="rgba(55, 0, 91, 1)"></circle><circle r="5" cx="983.66" cy="63.66" fill="rgba(55, 0, 91, 1)"></circle><circle r="5" cx="965.8" cy="258.32" fill="rgba(55, 0, 91, 1)"></circle><circle r="5" cx="1012.31" cy="365.33" fill="rgba(55, 0, 91, 1)"></circle><circle r="5" cx="956.46" cy="514.96" fill="rgba(55, 0, 91, 1)"></circle><circle r="5" cx="954.43" cy="640.29" fill="rgba(55, 0, 91, 1)"></circle><circle r="5" cx="1101.37" cy="-60.28" fill="rgba(55, 0, 91, 1)"></circle><circle r="5" cx="1136.87" cy="63.27" fill="rgba(55, 0, 91, 1)"></circle><circle r="5" cx="1105.77" cy="232.54" fill="rgba(55, 0, 91, 1)"></circle><circle r="5" cx="1088.58" cy="350.37" fill="rgba(55, 0, 91, 1)"></circle><circle r="5" cx="1110.85" cy="541.08" fill="rgba(55, 0, 91, 1)"></circle><circle r="5" cx="1107.01" cy="663" fill="rgba(55, 0, 91, 1)"></circle><circle r="5" cx="1273.57" cy="-71.29" fill="rgba(55, 0, 91, 1)"></circle><circle r="5" cx="1302.08" cy="56.93" fill="rgba(55, 0, 91, 1)"></circle><circle r="5" cx="1259.93" cy="259.63" fill="rgba(55, 0, 91, 1)"></circle><circle r="5" cx="1310.44" cy="392.29" fill="rgba(55, 0, 91, 1)"></circle><circle r="5" cx="1266.59" cy="533.35" fill="rgba(55, 0, 91, 1)"></circle><circle r="5" cx="1262.73" cy="686.15" fill="rgba(55, 0, 91, 1)"></circle><circle r="5" cx="1459.59" cy="-54.15" fill="rgba(55, 0, 91, 1)"></circle><circle r="5" cx="1442.26" cy="70.58" fill="rgba(55, 0, 91, 1)"></circle><circle r="5" cx="1403.96" cy="202.88" fill="rgba(55, 0, 91, 1)"></circle><circle r="5" cx="1428.2" cy="375.99" fill="rgba(55, 0, 91, 1)"></circle><circle r="5" cx="1388.32" cy="534.48" fill="rgba(55, 0, 91, 1)"></circle><circle r="5" cx="1421.22" cy="665.46" fill="rgba(55, 0, 91, 1)"></circle><circle r="5" cx="1547.55" cy="-89" fill="rgba(55, 0, 91, 1)"></circle><circle r="5" cx="1583.56" cy="57.12" fill="rgba(55, 0, 91, 1)"></circle><circle r="5" cx="1576.43" cy="209.78" fill="rgba(55, 0, 91, 1)"></circle><circle r="5" cx="1571.73" cy="403.48" fill="rgba(55, 0, 91, 1)"></circle><circle r="5" cx="1602.01" cy="524.54" fill="rgba(55, 0, 91, 1)"></circle><circle r="5" cx="1588.7" cy="648.54" fill="rgba(55, 0, 91, 1)"></circle><path d="M1123.89 701.87L1123.89 701.87" stroke="hsl(228.5, 77.2%, 51.5%)" stroke-width="1.5"></path><path d="M1123.89 701.87L1238.6 692.48" stroke="hsl(228.5, 77.2%, 51.5%)" stroke-width="1.5"></path><path d="M1123.89 701.87L979.41 644.8" stroke="hsl(228.5, 77.2%, 51.5%)" stroke-width="1.5"></path><path d="M1123.89 701.87L1091.52 490.31" stroke="hsl(228.5, 77.2%, 51.5%)" stroke-width="1.5"></path><path d="M1123.89 701.87L968.07 539.29" stroke="hsl(228.5, 77.2%, 51.5%)" stroke-width="1.5"></path><path d="M1441.13 392.95L1441.13 392.95" stroke="hsl(228.5, 77.2%, 51.5%)" stroke-width="1.5"></path><path d="M1441.13 392.95L1556.76 385.42" stroke="hsl(228.5, 77.2%, 51.5%)" stroke-width="1.5"></path><path d="M1441.13 392.95L1295.66 383.69" stroke="hsl(228.5, 77.2%, 51.5%)" stroke-width="1.5"></path><path d="M1441.13 392.95L1401.52 540.72" stroke="hsl(228.5, 77.2%, 51.5%)" stroke-width="1.5"></path><path d="M1441.13 392.95L1440.75 224.68" stroke="hsl(228.5, 77.2%, 51.5%)" stroke-width="1.5"></path><path d="M1610.37 84.28L1610.37 84.28" stroke="hsl(228.5, 77.2%, 51.5%)" stroke-width="1.5"></path><path d="M1610.37 84.28L1549.63 211.67" stroke="hsl(228.5, 77.2%, 51.5%)" stroke-width="1.5"></path><path d="M1610.37 84.28L1432.02 85.56" stroke="hsl(228.5, 77.2%, 51.5%)" stroke-width="1.5"></path><path d="M1610.37 84.28L1604.58 -106.78" stroke="hsl(228.5, 77.2%, 51.5%)" stroke-width="1.5"></path><path d="M1610.37 84.28L1453.32 -47.57" stroke="hsl(228.5, 77.2%, 51.5%)" stroke-width="1.5"></path><path d="M1610.37 84.28L1440.75 224.68" stroke="hsl(228.5, 77.2%, 51.5%)" stroke-width="1.5"></path><path d="M-85.75 541.48L-85.75 541.48" stroke="hsl(228.5, 77.2%, 51.5%)" stroke-width="1.5"></path><path d="M-85.75 541.48L-93.95 682.59" stroke="hsl(228.5, 77.2%, 51.5%)" stroke-width="1.5"></path><path d="M-85.75 541.48L83.2 537.92" stroke="hsl(228.5, 77.2%, 51.5%)" stroke-width="1.5"></path><path d="M-93.95 682.59L-93.95 682.59" stroke="hsl(228.5, 77.2%, 51.5%)" stroke-width="1.5"></path><path d="M-93.95 682.59L76.99 696.46" stroke="hsl(228.5, 77.2%, 51.5%)" stroke-width="1.5"></path><path d="M-93.95 682.59L83.2 537.92" stroke="hsl(228.5, 77.2%, 51.5%)" stroke-width="1.5"></path><path d="M-93.95 682.59L255.26 556.85" stroke="hsl(228.5, 77.2%, 51.5%)" stroke-width="1.5"></path><path d="M-93.95 682.59L396.05 669.44" stroke="hsl(228.5, 77.2%, 51.5%)" stroke-width="1.5"></path><path d="M83.2 537.92L83.2 537.92" stroke="hsl(228.5, 77.2%, 51.5%)" stroke-width="1.5"></path><path d="M83.2 537.92L76.99 696.46" stroke="hsl(228.5, 77.2%, 51.5%)" stroke-width="1.5"></path><path d="M83.2 537.92L255.26 556.85" stroke="hsl(228.5, 77.2%, 51.5%)" stroke-width="1.5"></path><path d="M83.2 537.92L372.84 514.88" stroke="hsl(228.5, 77.2%, 51.5%)" stroke-width="1.5"></path><path d="M76.99 696.46L76.99 696.46" stroke="hsl(228.5, 77.2%, 51.5%)" stroke-width="1.5"></path><path d="M76.99 696.46L-85.75 541.48" stroke="hsl(228.5, 77.2%, 51.5%)" stroke-width="1.5"></path><path d="M255.26 556.85L255.26 556.85" stroke="hsl(228.5, 77.2%, 51.5%)" stroke-width="1.5"></path><path d="M255.26 556.85L372.84 514.88" stroke="hsl(228.5, 77.2%, 51.5%)" stroke-width="1.5"></path><path d="M255.26 556.85L396.05 669.44" stroke="hsl(228.5, 77.2%, 51.5%)" stroke-width="1.5"></path><path d="M372.84 514.88L372.84 514.88" stroke="hsl(228.5, 77.2%, 51.5%)" stroke-width="1.5"></path><path d="M372.84 514.88L396.05 669.44" stroke="hsl(228.5, 77.2%, 51.5%)" stroke-width="1.5"></path><path d="M372.84 514.88L539.81 517.46" stroke="hsl(228.5, 77.2%, 51.5%)" stroke-width="1.5"></path><path d="M372.84 514.88L512.94 668.58" stroke="hsl(228.5, 77.2%, 51.5%)" stroke-width="1.5"></path><path d="M396.05 669.44L396.05 669.44" stroke="hsl(228.5, 77.2%, 51.5%)" stroke-width="1.5"></path><path d="M396.05 669.44L512.94 668.58" stroke="hsl(228.5, 77.2%, 51.5%)" stroke-width="1.5"></path><path d="M539.81 517.46L539.81 517.46" stroke="hsl(228.5, 77.2%, 51.5%)" stroke-width="1.5"></path><path d="M539.81 517.46L512.94 668.58" stroke="hsl(228.5, 77.2%, 51.5%)" stroke-width="1.5"></path><path d="M539.81 517.46L396.05 669.44" stroke="hsl(228.5, 77.2%, 51.5%)" stroke-width="1.5"></path><path d="M539.81 517.46L793.07 645.63" stroke="hsl(228.5, 77.2%, 51.5%)" stroke-width="1.5"></path><path d="M539.81 517.46L255.26 556.85" stroke="hsl(228.5, 77.2%, 51.5%)" stroke-width="1.5"></path><path d="M539.81 517.46L852.52 554.63" stroke="hsl(228.5, 77.2%, 51.5%)" stroke-width="1.5"></path><path d="M512.94 668.58L512.94 668.58" stroke="hsl(228.5, 77.2%, 51.5%)" stroke-width="1.5"></path><path d="M846.01 380.81L846.01 380.81" stroke="hsl(228.5, 77.2%, 51.5%)" stroke-width="1.5"></path><path d="M846.01 380.81L991.6 396.48" stroke="hsl(228.5, 77.2%, 51.5%)" stroke-width="1.5"></path><path d="M846.01 380.81L852.52 554.63" stroke="hsl(228.5, 77.2%, 51.5%)" stroke-width="1.5"></path><path d="M852.52 554.63L852.52 554.63" stroke="hsl(228.5, 77.2%, 51.5%)" stroke-width="1.5"></path><path d="M852.52 554.63L793.07 645.63" stroke="hsl(228.5, 77.2%, 51.5%)" stroke-width="1.5"></path><path d="M852.52 554.63L968.07 539.29" stroke="hsl(228.5, 77.2%, 51.5%)" stroke-width="1.5"></path><path d="M793.07 645.63L793.07 645.63" stroke="hsl(228.5, 77.2%, 51.5%)" stroke-width="1.5"></path><path d="M793.07 645.63L979.41 644.8" stroke="hsl(228.5, 77.2%, 51.5%)" stroke-width="1.5"></path><path d="M793.07 645.63L968.07 539.29" stroke="hsl(228.5, 77.2%, 51.5%)" stroke-width="1.5"></path><path d="M793.07 645.63L846.01 380.81" stroke="hsl(228.5, 77.2%, 51.5%)" stroke-width="1.5"></path><path d="M991.6 396.48L991.6 396.48" stroke="hsl(228.5, 77.2%, 51.5%)" stroke-width="1.5"></path><path d="M991.6 396.48L1091.52 490.31" stroke="hsl(228.5, 77.2%, 51.5%)" stroke-width="1.5"></path><path d="M991.6 396.48L968.07 539.29" stroke="hsl(228.5, 77.2%, 51.5%)" stroke-width="1.5"></path><path d="M991.6 396.48L1151.73 371.36" stroke="hsl(228.5, 77.2%, 51.5%)" stroke-width="1.5"></path><path d="M991.6 396.48L852.52 554.63" stroke="hsl(228.5, 77.2%, 51.5%)" stroke-width="1.5"></path><path d="M968.07 539.29L968.07 539.29" stroke="hsl(228.5, 77.2%, 51.5%)" stroke-width="1.5"></path><path d="M968.07 539.29L979.41 644.8" stroke="hsl(228.5, 77.2%, 51.5%)" stroke-width="1.5"></path><path d="M968.07 539.29L1091.52 490.31" stroke="hsl(228.5, 77.2%, 51.5%)" stroke-width="1.5"></path><path d="M979.41 644.8L979.41 644.8" stroke="hsl(228.5, 77.2%, 51.5%)" stroke-width="1.5"></path><path d="M979.41 644.8L852.52 554.63" stroke="hsl(228.5, 77.2%, 51.5%)" stroke-width="1.5"></path><path d="M979.41 644.8L1091.52 490.31" stroke="hsl(228.5, 77.2%, 51.5%)" stroke-width="1.5"></path><path d="M979.41 644.8L991.6 396.48" stroke="hsl(228.5, 77.2%, 51.5%)" stroke-width="1.5"></path><path d="M1153.06 99.12L1153.06 99.12" stroke="hsl(228.5, 77.2%, 51.5%)" stroke-width="1.5"></path><path d="M1153.06 99.12L1256.94 99.58" stroke="hsl(228.5, 77.2%, 51.5%)" stroke-width="1.5"></path><path d="M1099.38 189.43L1099.38 189.43" stroke="hsl(228.5, 77.2%, 51.5%)" stroke-width="1.5"></path><path d="M1099.38 189.43L1153.06 99.12" stroke="hsl(228.5, 77.2%, 51.5%)" stroke-width="1.5"></path><path d="M1099.38 189.43L1256.94 99.58" stroke="hsl(228.5, 77.2%, 51.5%)" stroke-width="1.5"></path><path d="M1151.73 371.36L1151.73 371.36" stroke="hsl(228.5, 77.2%, 51.5%)" stroke-width="1.5"></path><path d="M1151.73 371.36L1091.52 490.31" stroke="hsl(228.5, 77.2%, 51.5%)" stroke-width="1.5"></path><path d="M1151.73 371.36L1295.66 383.69" stroke="hsl(228.5, 77.2%, 51.5%)" stroke-width="1.5"></path><path d="M1091.52 490.31L1091.52 490.31" stroke="hsl(228.5, 77.2%, 51.5%)" stroke-width="1.5"></path><path d="M1091.52 490.31L1295.66 383.69" stroke="hsl(228.5, 77.2%, 51.5%)" stroke-width="1.5"></path><path d="M1288 -66.15L1288 -66.15" stroke="hsl(228.5, 77.2%, 51.5%)" stroke-width="1.5"></path><path d="M1288 -66.15L1453.32 -47.57" stroke="hsl(228.5, 77.2%, 51.5%)" stroke-width="1.5"></path><path d="M1288 -66.15L1256.94 99.58" stroke="hsl(228.5, 77.2%, 51.5%)" stroke-width="1.5"></path><path d="M1288 -66.15L1432.02 85.56" stroke="hsl(228.5, 77.2%, 51.5%)" stroke-width="1.5"></path><path d="M1288 -66.15L1153.06 99.12" stroke="hsl(228.5, 77.2%, 51.5%)" stroke-width="1.5"></path><path d="M1256.94 99.58L1256.94 99.58" stroke="hsl(228.5, 77.2%, 51.5%)" stroke-width="1.5"></path><path d="M1256.94 99.58L1282.07 210.97" stroke="hsl(228.5, 77.2%, 51.5%)" stroke-width="1.5"></path><path d="M1256.94 99.58L1432.02 85.56" stroke="hsl(228.5, 77.2%, 51.5%)" stroke-width="1.5"></path><path d="M1256.94 99.58L1440.75 224.68" stroke="hsl(228.5, 77.2%, 51.5%)" stroke-width="1.5"></path><path d="M1282.07 210.97L1282.07 210.97" stroke="hsl(228.5, 77.2%, 51.5%)" stroke-width="1.5"></path><path d="M1282.07 210.97L1440.75 224.68" stroke="hsl(228.5, 77.2%, 51.5%)" stroke-width="1.5"></path><path d="M1282.07 210.97L1153.06 99.12" stroke="hsl(228.5, 77.2%, 51.5%)" stroke-width="1.5"></path><path d="M1282.07 210.97L1295.66 383.69" stroke="hsl(228.5, 77.2%, 51.5%)" stroke-width="1.5"></path><path d="M1295.66 383.69L1295.66 383.69" stroke="hsl(228.5, 77.2%, 51.5%)" stroke-width="1.5"></path><path d="M1238.6 692.48L1238.6 692.48" stroke="hsl(228.5, 77.2%, 51.5%)" stroke-width="1.5"></path><path d="M1238.6 692.48L1446.61 644.59" stroke="hsl(228.5, 77.2%, 51.5%)" stroke-width="1.5"></path><path d="M1238.6 692.48L1401.52 540.72" stroke="hsl(228.5, 77.2%, 51.5%)" stroke-width="1.5"></path><path d="M1453.32 -47.57L1453.32 -47.57" stroke="hsl(228.5, 77.2%, 51.5%)" stroke-width="1.5"></path><path d="M1453.32 -47.57L1432.02 85.56" stroke="hsl(228.5, 77.2%, 51.5%)" stroke-width="1.5"></path><path d="M1453.32 -47.57L1604.58 -106.78" stroke="hsl(228.5, 77.2%, 51.5%)" stroke-width="1.5"></path><path d="M1432.02 85.56L1432.02 85.56" stroke="hsl(228.5, 77.2%, 51.5%)" stroke-width="1.5"></path><path d="M1432.02 85.56L1440.75 224.68" stroke="hsl(228.5, 77.2%, 51.5%)" stroke-width="1.5"></path><path d="M1432.02 85.56L1549.63 211.67" stroke="hsl(228.5, 77.2%, 51.5%)" stroke-width="1.5"></path><path d="M1440.75 224.68L1440.75 224.68" stroke="hsl(228.5, 77.2%, 51.5%)" stroke-width="1.5"></path><path d="M1440.75 224.68L1549.63 211.67" stroke="hsl(228.5, 77.2%, 51.5%)" stroke-width="1.5"></path><path d="M1401.52 540.72L1401.52 540.72" stroke="hsl(228.5, 77.2%, 51.5%)" stroke-width="1.5"></path><path d="M1401.52 540.72L1446.61 644.59" stroke="hsl(228.5, 77.2%, 51.5%)" stroke-width="1.5"></path><path d="M1401.52 540.72L1295.66 383.69" stroke="hsl(228.5, 77.2%, 51.5%)" stroke-width="1.5"></path><path d="M1401.52 540.72L1574.41 641.36" stroke="hsl(228.5, 77.2%, 51.5%)" stroke-width="1.5"></path><path d="M1401.52 540.72L1603.24 501.05" stroke="hsl(228.5, 77.2%, 51.5%)" stroke-width="1.5"></path><path d="M1446.61 644.59L1446.61 644.59" stroke="hsl(228.5, 77.2%, 51.5%)" stroke-width="1.5"></path><path d="M1446.61 644.59L1574.41 641.36" stroke="hsl(228.5, 77.2%, 51.5%)" stroke-width="1.5"></path><path d="M1446.61 644.59L1603.24 501.05" stroke="hsl(228.5, 77.2%, 51.5%)" stroke-width="1.5"></path><path d="M1604.58 -106.78L1604.58 -106.78" stroke="hsl(228.5, 77.2%, 51.5%)" stroke-width="1.5"></path><path d="M1549.63 211.67L1549.63 211.67" stroke="hsl(228.5, 77.2%, 51.5%)" stroke-width="1.5"></path><path d="M1556.76 385.42L1556.76 385.42" stroke="hsl(228.5, 77.2%, 51.5%)" stroke-width="1.5"></path><path d="M1556.76 385.42L1603.24 501.05" stroke="hsl(228.5, 77.2%, 51.5%)" stroke-width="1.5"></path><path d="M1556.76 385.42L1549.63 211.67" stroke="hsl(228.5, 77.2%, 51.5%)" stroke-width="1.5"></path><path d="M1556.76 385.42L1440.75 224.68" stroke="hsl(228.5, 77.2%, 51.5%)" stroke-width="1.5"></path><path d="M1556.76 385.42L1401.52 540.72" stroke="hsl(228.5, 77.2%, 51.5%)" stroke-width="1.5"></path><path d="M1603.24 501.05L1603.24 501.05" stroke="hsl(228.5, 77.2%, 51.5%)" stroke-width="1.5"></path><path d="M1603.24 501.05L1574.41 641.36" stroke="hsl(228.5, 77.2%, 51.5%)" stroke-width="1.5"></path><path d="M1603.24 501.05L1441.13 392.95" stroke="hsl(228.5, 77.2%, 51.5%)" stroke-width="1.5"></path><path d="M1574.41 641.36L1574.41 641.36" stroke="hsl(228.5, 77.2%, 51.5%)" stroke-width="1.5"></path><path d="M1574.41 641.36L1556.76 385.42" stroke="hsl(228.5, 77.2%, 51.5%)" stroke-width="1.5"></path><path d="M1574.41 641.36L1441.13 392.95" stroke="hsl(228.5, 77.2%, 51.5%)" stroke-width="1.5"></path><path d="M1574.41 641.36L1238.6 692.48" stroke="hsl(228.5, 77.2%, 51.5%)" stroke-width="1.5"></path><circle r="25" cx="1123.89" cy="701.87" fill="url(#SvgjsRadialGradient1003)"></circle><circle r="25" cx="1441.13" cy="392.95" fill="url(#SvgjsRadialGradient1003)"></circle><circle r="25" cx="1610.37" cy="84.28" fill="url(#SvgjsRadialGradient1003)"></circle><circle r="5" cx="-85.75" cy="541.48" fill="#8b9ad9"></circle><circle r="5" cx="-93.95" cy="682.59" fill="#8b9ad9"></circle><circle r="5" cx="83.2" cy="537.92" fill="#8b9ad9"></circle><circle r="5" cx="76.99" cy="696.46" fill="#8b9ad9"></circle><circle r="5" cx="255.26" cy="556.85" fill="#8b9ad9"></circle><circle r="5" cx="372.84" cy="514.88" fill="#8b9ad9"></circle><circle r="5" cx="396.05" cy="669.44" fill="#8b9ad9"></circle><circle r="5" cx="539.81" cy="517.46" fill="#8b9ad9"></circle><circle r="5" cx="512.94" cy="668.58" fill="#8b9ad9"></circle><circle r="5" cx="846.01" cy="380.81" fill="#8b9ad9"></circle><circle r="5" cx="852.52" cy="554.63" fill="#8b9ad9"></circle><circle r="5" cx="793.07" cy="645.63" fill="#8b9ad9"></circle><circle r="5" cx="991.6" cy="396.48" fill="#8b9ad9"></circle><circle r="5" cx="968.07" cy="539.29" fill="#8b9ad9"></circle><circle r="5" cx="979.41" cy="644.8" fill="#8b9ad9"></circle><circle r="5" cx="1153.06" cy="99.12" fill="#8b9ad9"></circle><circle r="5" cx="1099.38" cy="189.43" fill="#8b9ad9"></circle><circle r="5" cx="1151.73" cy="371.36" fill="#8b9ad9"></circle><circle r="5" cx="1091.52" cy="490.31" fill="#8b9ad9"></circle><circle r="5" cx="1288" cy="-66.15" fill="#8b9ad9"></circle><circle r="5" cx="1256.94" cy="99.58" fill="#8b9ad9"></circle><circle r="5" cx="1282.07" cy="210.97" fill="#8b9ad9"></circle><circle r="5" cx="1295.66" cy="383.69" fill="#8b9ad9"></circle><circle r="5" cx="1238.6" cy="692.48" fill="#8b9ad9"></circle><circle r="5" cx="1453.32" cy="-47.57" fill="#8b9ad9"></circle><circle r="5" cx="1432.02" cy="85.56" fill="#8b9ad9"></circle><circle r="5" cx="1440.75" cy="224.68" fill="#8b9ad9"></circle><circle r="5" cx="1401.52" cy="540.72" fill="#8b9ad9"></circle><circle r="5" cx="1446.61" cy="644.59" fill="#8b9ad9"></circle><circle r="5" cx="1604.58" cy="-106.78" fill="#8b9ad9"></circle><circle r="5" cx="1549.63" cy="211.67" fill="#8b9ad9"></circle><circle r="5" cx="1556.76" cy="385.42" fill="#8b9ad9"></circle><circle r="5" cx="1603.24" cy="501.05" fill="#8b9ad9"></circle><circle r="5" cx="1574.41" cy="641.36" fill="#8b9ad9"></circle></g><defs><mask id="SvgjsMask1002"><rect width="1440" height="560" fill="#ffffff"></rect></mask><radialGradient id="SvgjsRadialGradient1003"><stop stop-color="#ffffff" offset="0.1"></stop><stop stop-color="#1735b3" offset="0.2"></stop><stop stop-color="rgba(23, 53, 179, 0)" offset="1"></stop></radialGradient></defs></svg>